<?xml version="1.0" standalone="no"?>
<!DOCTYPE svg PUBLIC "-//W3C//DTD SVG 1.1//EN" "http://www.w3.org/Graphics/SVG/1.1/DTD/svg11.dtd" >
<svg>
<metadata>
Created by FontForge 20090914 at Wed Mar 26 17:57:42 2014
 By www-data
Muhammad Ismail.H., E-mail : ismail_ngr@yahoo.com.
</metadata>
<defs>
<font id="DCITmlIsmail" horiz-adv-x="645" >
  <font-face 
    font-family="DCI + Tml + Ismail"
    font-weight="400"
    font-stretch="normal"
    units-per-em="1000"
    panose-1="0 0 0 0 0 0 0 0 0 0"
    ascent="800"
    descent="-200"
    x-height="476.999"
    cap-height="476.998"
    bbox="-768 -498 1248 835"
    underline-thickness="20"
    underline-position="-123"
    unicode-range="U+0020-U+00FF"
  />
<missing-glyph horiz-adv-x="500" 
d="M63 0v835h375v-835h-375zM125 63h250v710h-250v-710z" />
    <glyph glyph-name=".notdef" horiz-adv-x="500" 
d="M63 0v835h375v-835h-375zM125 63h250v710h-250v-710z" />
    <glyph glyph-name="space" unicode=" " horiz-adv-x="500" 
 />
    <glyph glyph-name="exclam" unicode="!" horiz-adv-x="1037" 
d="M713 477c-10.667 12.667 -18.665 27 -23.998 43l-8 25l-3 21v36c0 37.333 17.667 68 53 92c31.333 22 66.333 33 105 33h62c36 0 67 -6.33301 93 -19c33.333 -16.667 50 -41 50 -73v-33c0 -17.333 -8.83301 -33.166 -26.5 -47.499s-35.5 -21.5 -53.5 -21.5h-45
c-27.333 0 -48.833 8.66699 -64.5 26s-23.5 39.666 -23.5 66.999c0 16.667 2.66699 31.334 8 44.001c-18 0 -35.833 -8.66699 -53.5 -26s-26.5 -35.333 -26.5 -54v-24c0 -27.333 11.667 -57 35 -89h147v-57h-135v-420h-80v420h-35c-24.667 0 -49.334 -9 -74.001 -27
c-26.667 -20 -40 -41.667 -40 -65v-328h-78v340c0 53.333 -26.667 80 -80 80c-30 0 -45 -19 -45 -57v-363h-353v477h80v-420h193v306c0 35.333 14.333 63.666 43 84.999c26 19.333 57.333 29 94 29c58 0 101.667 -23 131 -69c15.333 18.667 36 33.667 62 45l19 8l33 10
c13.333 4 26.666 6 39.999 6zM928.002 682c-16.667 0 -28.333 -12 -35 -36v-21c0 -23.333 11 -35 33 -35c23.333 0 35 11.667 35 35v21c0 20 -11 32 -33 36zM246.003 -68c66.667 -1.33301 138.334 -24.334 215.001 -69.001l-33 -47c-52.667 40.667 -125.667 61 -219 61
c-74 0 -111 -12.333 -111 -37c0 -15.333 30 -34 90 -56c47.333 -12.667 93.666 -20.667 138.999 -24l90 -7l101 -3c93.333 -2.66699 179 16.333 257 57c94 48.667 141 116.334 141 203.001v11c0 26.667 -1.33301 46.334 -4 59.001c-2 15.333 -7.33301 32.333 -16 51
c-12.667 26 -28 39 -46 39c-16 0 -31.667 -11.667 -47 -35v68c22 12 44 18 66 18c76.667 0 115 -73.667 115 -221c0 -86.667 -39.667 -159.334 -119 -218.001c-71.333 -52.667 -149.333 -79 -234 -79h-272c-48 0 -89.667 2 -125 6c-27.333 3.33301 -60.333 11 -99 23
c-78 23.333 -117 55.333 -117 96c0 72.667 61.333 107.667 184 105z" />
    <glyph glyph-name="quotedbl" unicode="&#x22;" horiz-adv-x="355" 
d="M70 462l-24 137v117h100v-117l-22 -137h-54zM232 462l-24 137v117h100v-117l-23 -137h-53z" />
    <glyph glyph-name="numbersign" unicode="#" horiz-adv-x="1154" 
d="M645 0l-319.002 0.00195312v57c20 13.333 38.333 38.166 55 74.499s25 68.166 25 95.499c0 44.667 -9.66699 85.667 -29 123c-23.333 46.667 -55.333 70 -96 70h-58c-32.667 0 -61.667 -14.5 -87 -43.5s-38 -60.167 -38 -93.5c20.667 20.667 45.334 31 74.001 31
c26.667 0 49.667 -9.83301 69 -29.5s29 -42.834 29 -69.501v-90c0 -33.333 -14 -62 -42 -86s-59 -36 -93 -36s-61.667 10 -83 30s-32 46.667 -32 80v147c0 57.333 19.667 107.833 59 151.5s87.333 65.5 144 65.5h58c55.333 0 103 -20.667 143 -62s60 -100.333 60 -177
c0 -34 -6.33301 -67.333 -19 -100c-14 -37.333 -33.667 -64.333 -59 -81h158v295c0 32.667 14.5 61.667 43.5 87s60.167 38 93.5 38c38 0 70 -12 96 -36c19.333 -18 29 -33 29 -45l12 22c5.33301 10 17.166 22.333 35.499 37s40.166 22 65.499 22
c45.333 0 82 -15.667 110 -47c26 -30 39 -68 39 -114v-238c0 -135.333 -72.333 -203 -217 -203h-637c-15.333 0 -28.666 -5.33301 -39.999 -16c-5.33301 -6.66699 -10.666 -17 -15.999 -31v-90h-80v90c0 34.667 14.667 61.334 44 80.001c24.667 16 55.334 24 92.001 24h649
c44 0 77 18 99 54c17.333 30 26 68.667 26 116v214c0 25.333 -7 48.333 -21 69c-15.333 23.333 -35 35 -59 35c-53.333 0 -80 -34.667 -80 -104v-316h-78v340c0 53.333 -19 80 -57 80c-20 0 -37.333 -8.33301 -52 -25l-9 -15l-7 -28v-352zM188.998 102.002v89
c0 29.333 -15 44 -45 44c-30.667 0 -46 -14.667 -46 -44v-89c0 -29.333 14.667 -44 44 -44c11.333 0 22 4.5 32 13.5s15 19.167 15 30.5z" />
    <glyph glyph-name="dollar" unicode="$" horiz-adv-x="727" 
d="M367 -240l35 46.9971c2 -7.33301 11 -16 27 -26c14.667 -5.33301 28 -8.66602 40 -9.99902h35c14 0 30.333 6.33301 49 19s29 25.334 31 38.001v24c0 10.667 -8 24 -24 40l-24 13l-20 3h-57c-26 0 -53 -16.667 -81 -50l-78 -93c-33.333 -33.333 -67.666 -50 -102.999 -50
h-23c-39.333 0 -74.333 10 -105 30c-35.333 23.333 -53 55 -53 95v68c0 46.667 25 85.667 75 117c43.333 27.333 93.666 41 150.999 41h217c32 0 60.833 12.833 86.5 38.5s38.5 54.5 38.5 86.5v116c0 23.333 -5.66699 46.666 -17 69.999c-13.333 28.667 -30.333 43 -51 43
h-24c-14.667 0 -32 -9 -52 -27c-18.667 -22.667 -28 -51.334 -28 -86.001v-182h-78v170c0 39.333 -9.33301 71.333 -28 96c-14.667 19.333 -32 29 -52 29h-45c-45.333 0 -76 -15 -92 -45l33 4c29.333 0 56 -10.667 80 -32s36 -46.666 36 -75.999v-33
c0 -29.333 -13 -57 -39 -83c-24.667 -18.667 -53 -28 -85 -28c-35.333 0 -64.666 9.33301 -87.999 28c-25.333 20.667 -38 48.334 -38 83.001v69c0 43.333 17.5 82.5 52.5 117.5s74.167 52.5 117.5 52.5h44c25.333 0 51.666 -8 78.999 -24c22 -12.667 41.333 -31.667 58 -57
c29.333 54 71 81 125 81h45c38 0 69 -18 93 -54c21.333 -31.333 32 -67 32 -107v-125c0 -20.667 -4 -43 -12 -67l-15 -29l-11 -14l-12 -14c-32.667 -38 -80.334 -57 -143.001 -57h-239c-29.333 0 -58.333 -9.66699 -87 -29c-32.667 -21.333 -49 -45.666 -49 -72.999v-56
c0 -54 30.667 -81 92 -81h23c14 0 35 16.667 63 50c42.667 50 71.334 81.333 86.001 94c39.333 33.333 76.333 50 111 50h68c28 0 55.333 -9.66699 82 -29c28.667 -21.333 43 -45.666 43 -72.999v-47c0 -32.667 -13 -58.334 -39 -77.001c-23.333 -16 -52 -24 -86 -24h-90
c-18.667 0 -34.667 4.66699 -48 14c-9.33301 4 -20 14.333 -32 31zM186 282.997c0 22.667 -15.334 34 -46.001 34s-46 -11.333 -46 -34v-68l16 -23l31 -10c8.66699 0 18.334 3.5 29.001 10.5s16 14.5 16 22.5v68z" />
    <glyph glyph-name="percent" unicode="%" horiz-adv-x="1303" 
d="M121 238c-12.667 -12.667 -19 -39.667 -19 -81c0 -22 2.33301 -36.667 7 -44c19.333 -37.333 54 -56 104 -56c24 0 48 6.66699 72 20c27.333 16 41 35.333 41 58v103h-205zM1109 146l-33 -89h80c0 45.333 -15.667 75 -47 89zM1041 420
c-8 0 -16.832 -3.83301 -26.499 -11.5s-15.834 -15.5 -18.501 -23.5v-114c0 -21.333 15 -32 45 -32c31.333 0 47 10.667 47 32v114c0 8 -5.33301 15.833 -16 23.5s-21 11.5 -31 11.5zM326.001 295v125h-125v-125h125zM645.001 90v113c0 22.667 -16 34 -48 34
c-29.333 0 -44 -11.333 -44 -34v-113c0 -22 15 -33 45 -33c31.333 0 47 11 47 33zM406.001 420l0.00195312 -125h114c6 13.333 21 30.666 45 51.999c14 9.33301 27 16.333 39 21l19 5l22 2h56c48 0 87.333 -17 118 -51c26.667 -30.667 44 -71 52 -121v-68l-1 -21
c0 -6.66699 -2.33301 -14.667 -7 -24c-5.33301 -19.333 -10.333 -30.333 -15 -33h148l45 113c-35.333 0 -65 12 -89 36s-36 53.667 -36 89v80c0 31.333 9.33301 56 28 74c9.33301 8.66699 22 15.667 38 21l38 7h44c26.667 0 50.334 -8.66699 71.001 -26s31 -39.333 31 -66
v-114c0 -25.333 -7 -48 -21 -68c59.333 -28 89 -73.667 89 -137v-56c0 -6 -3.66699 -9.33301 -11 -10h-170l-125 -285l-69 35l114 250h-215v57c5.33301 3.33301 13.666 13.333 24.999 30l6 17l2 21v78c0 30.667 -13.333 58.334 -40 83.001c-12.667 12 -27.667 20 -45 24
l-25 6l-31 2l-29 -2c25.333 0 48.666 -14.333 69.999 -43s32 -56 32 -82v-78c0 -26.667 -10.5 -52.167 -31.5 -76.5s-44.5 -36.5 -70.5 -36.5h-45c-27.333 0 -51.333 13.667 -72 41c-6.66699 8.66699 -14.334 23 -23.001 43l-6 24l-2 27v56
c0 12.667 3.66699 28.334 11 47.001h-78v-92c0 -97.333 -64.333 -146 -193 -146c-46.667 0 -88.667 10.667 -126 32c-44.667 25.333 -67 59.666 -67 102.999v103c0 14 5.83301 27 17.5 39s24.5 18 38.5 18h45v182h420v-57h-135z" />
    <glyph glyph-name="ampersand" unicode="&#x26;" horiz-adv-x="922" 
d="M141 57c9.33301 0 19.499 5.16797 30.499 15.501s16.5 20.166 16.5 29.499v89c0 29.333 -15.667 44 -47 44c-11.333 0 -21.666 -4.5 -30.999 -13.5s-14 -19.167 -14 -30.5v-89c0 -10 5.33301 -20.333 16 -31c5.33301 -4 15 -8.66699 29 -14zM550.999 -272.999
l-69.001 22.999l114 250h-274v57c20 14 38.333 39 55 75s25 67.667 25 95c0 44.667 -9.66699 85.667 -29 123c-23.333 46.667 -55.333 70 -96 70h-56c-32 0 -60.833 -14.667 -86.5 -44s-38.5 -60.333 -38.5 -93c20.667 20.667 45 31 73 31c26 0 48.667 -10 68 -30
s29 -43 29 -69v-102c0 -32 -15.333 -59.333 -46 -82c-27.333 -20.667 -57.666 -31 -90.999 -31c-30.667 0 -57.167 11.167 -79.5 33.5s-33.5 48.833 -33.5 79.5v147c0 56 20.333 106.167 61 150.5s88.667 66.5 144 66.5h68c55.333 0 103 -25.333 143 -76
c34 -43.333 51 -98 51 -164c0 -80 -27 -140 -81 -180h217l57 113c-38 5.33301 -69.333 18 -94 38c-28.667 22.667 -43 51.667 -43 87v80c0 27.333 11.333 52 34 74c19.333 18.667 42 28 68 28h56c22 0 42.833 -9.5 62.5 -28.5s29.5 -40.167 29.5 -63.5v-114
c0 -28 -7.66699 -50.667 -23 -68c27.333 -16 49.333 -37.333 66 -64l7 -14l12 -28c4 -9.33301 6 -19.666 6 -30.999v-56c0 -6 -3.66699 -9.33301 -11 -10h-170zM708.998 385c0 22.667 -15 34 -45 34s-45 -11.333 -45 -34v-114c0 -10 4.66699 -18 14 -24s20.333 -9 33 -9
c28.667 0 43 11 43 33v114zM776.998 57l3 21c0 23.333 -12 46 -36 68l-47 -89h80z" />
    <glyph glyph-name="quotesingle" unicode="'" horiz-adv-x="0" 
d="M-768 402c6 17.333 13 31.8301 21 43.4971s16 19.167 24 22.5l22 10l19 3l14 1c11.333 0.666992 27 -3.66602 47 -12.999c9.33301 0 18.333 -10 27 -30c7.33301 -17.333 11 -31.666 11 -42.999c0 -35.333 -11 -59.666 -33 -72.999c-15.333 -9.33301 -31.333 -14 -48 -14
c-27.333 0 -50.333 9.33301 -69 28l-10 14l-6 15l2 7zM-715 384.997l1 -10c0 -7.33301 7 -16 21 -26c12 -6 24.667 -9 38 -9c6.66699 0 11 0.666992 13 2c22 10 33 28.667 33 56c0 8 -4.5 16.833 -13.5 26.5s-20.167 14.5 -33.5 14.5c-12 0 -21.333 -1.66699 -28 -5
c-20.667 -4.66699 -31 -21 -31 -49z" />
    <glyph glyph-name="parenleft" unicode="(" horiz-adv-x="222" 
d="M250 670c-44.667 -70.667 -77 -141.333 -97 -212c-11.333 -40.667 -18.333 -76.334 -21 -107.001l-5 -59l-2 -65c-4.66699 -148 37 -292 125 -432h-80l-38 56l-31 51l-25 47l-22 48c-28 61.333 -42 138 -42 230c0 82.667 14 160.667 42 234
c24 62.667 62.667 132.334 116 209.001h80z" />
    <glyph glyph-name="parenright" unicode=")" horiz-adv-x="230" 
d="M-68 670h79.999c54 -79.333 92.333 -149 115 -209c6 -16 16.667 -54.667 32 -116l8 -56l3 -62c4 -76 -10 -152.667 -42 -230l-9 -22l-11 -23l-26 -49c-19.333 -36 -42.666 -72 -69.999 -108h-80c82.667 142 124 288 124 438c0 156 -41.333 301.667 -124 437z" />
    <glyph glyph-name="asterisk" unicode="*" horiz-adv-x="369" 
d="M159 499c12.667 0 23.999 -3.5 33.999 -10.5s15 -19.5 15 -37.5s-5 -40 -15 -66c28.667 19.333 52.334 29 71.001 29c8.66699 0 15.667 -2 21 -6c18 -13.333 26.333 -28 25 -44l-1 -12c-2 -24 -32.667 -36 -92 -36c38.667 -25.333 58 -48 58 -68
c0 -13.333 -6.16699 -24.166 -18.5 -32.499s-25.5 -12.5 -39.5 -12.5c-23.333 0 -42.333 26.667 -57 80c-19.333 -53.333 -42 -80 -68 -80c-31.333 5.33301 -47 20 -47 44c0 20.667 19.667 43.667 59 69c-61.333 14 -92 29.667 -92 47c0 18.667 7.66699 33.667 23 45
c5.33301 4 12 6 20 6c18.667 0 42 -9.66699 70 -29c-10 25.333 -15 47.666 -15 66.999c0 31.333 16.333 47 49 47z" />
    <glyph glyph-name="plus" unicode="+" horiz-adv-x="584" 
d="M250 116v196h-194v82h194v195h83v-195h195v-82h-195v-196h-83z" />
    <glyph glyph-name="comma" unicode="," horiz-adv-x="195" 
d="M135 113v-102.999c0 -44.667 -9.66699 -81.667 -29 -111c-22 -32.667 -54 -52.334 -96 -59.001v29c53.333 14 80 57.667 80 131h-80v113h125z" />
    <glyph glyph-name="hyphen" unicode="-" horiz-adv-x="333" 
d="M32 215v88h270v-88h-270z" />
    <glyph glyph-name="hyphen" unicode="&#x2010;" horiz-adv-x="333" 
d="M32 215v88h270v-88h-270z" />
    <glyph glyph-name="period" unicode="." horiz-adv-x="230" 
d="M202 55c0 -22 -8.66602 -41.666 -25.999 -58.999s-37 -26 -59 -26c-20.667 0 -41 9 -61 27c-15.333 17.333 -23 36.666 -23 57.999c0 22.667 8.5 42.167 25.5 58.5s36.833 24.5 59.5 24.5c23.333 0 43.166 -8 59.499 -24s24.5 -35.667 24.5 -59z" />
    <glyph glyph-name="slash" unicode="/" horiz-adv-x="249" 
d="M270 710l-216 -905l-77 2l215 905z" />
    <glyph glyph-name="zero" unicode="0" horiz-adv-x="518" 
d="M344 316c2.66699 79.333 -3.66699 143 -19 191c-17.333 55.333 -49.333 83 -96 83c-40 0 -69.667 -29 -89 -87c-8.66699 -52 -13 -117.333 -13 -196c0 -57.333 5.33301 -107.333 16 -150c18 -69.333 47.667 -104 89 -104c42.667 0 72.667 22 90 66
c7.33301 18 12.333 43.333 15 76l5 55zM456.999 340c0 -234.667 -76 -352 -228 -352c-143.333 0 -215 109.333 -215 328c0 101.333 11.333 179.333 34 234c34 80 94.333 120 181 120c152 0 228 -110 228 -330z" />
    <glyph glyph-name="one" unicode="1" horiz-adv-x="365" 
d="M198 653h80v-658h-115v465h-146v68c54 0 93.667 7.66699 119 23c29.333 18 50 52 62 102z" />
    <glyph glyph-name="two" unicode="2" horiz-adv-x="506" 
d="M332 465c0 31.333 -9.5 58.0029 -28.5 80.0029s-43.833 33 -74.5 33c-32 0 -57 -11.667 -75 -35s-27 -57.333 -27 -102h-102v33c0 16.667 0.666992 26.667 2 30l1 20l8 22c8.66699 23.333 24 45.666 46 66.999c39.333 38 87.666 57 144.999 57
c60 0 111.333 -19.333 154 -58s64 -87.667 64 -147c0 -56.667 -19.333 -108.334 -58 -155.001c-16 -18.667 -58 -55 -126 -109c-33.333 -26 -54.666 -43.333 -63.999 -52c-22.667 -19.333 -42 -39 -58 -59h306v-90h-431c0 64 27.333 124.333 82 181l154 133
c54.667 47.333 82 97.666 82 150.999z" />
    <glyph glyph-name="three" unicode="3" horiz-adv-x="506" 
d="M115 191c7.33301 -75.333 45.3311 -112.999 113.998 -112.999c23.333 0 47.666 11 72.999 33c20 22 30 48.667 30 80c0 34.667 -10 63 -30 85c-27.333 20.667 -66.666 31 -117.999 31v68c90.667 0 136 34 136 102c0 26 -10.333 49.333 -31 70s-44 31 -70 31
c-49.333 0 -80 -37.667 -92 -113h-102l1 46c1.33301 10 3.66602 20 6.99902 30c6.66699 19.333 19 39.666 37 60.999c38 45.333 90.667 68 158 68c56.667 0 104.334 -16 143.001 -48c42 -34 63 -78.667 63 -134c0 -46 -26.667 -87.667 -80 -125
c60.667 -34.667 91 -95 91 -181c-11.333 -129.333 -83.333 -194 -216 -194c-59.333 0 -108.666 19 -147.999 57s-61.666 86.667 -66.999 146h101z" />
    <glyph glyph-name="four" unicode="4" horiz-adv-x="529" 
d="M309 238v328l-227 -328h227zM14 146v125l261 375h147v-408h68v-92h-68v-146h-113v146h-295z" />
    <glyph glyph-name="five" unicode="5" horiz-adv-x="506" 
d="M115 158c14 -53.333 47.667 -80 101 -80c35.333 0 65.5 12 90.5 36s37.5 53.667 37.5 89c0 37.333 -11.667 69 -35 95s-53.333 39 -90 39c-30 0 -60.667 -14 -92 -42l-92 12l47 339h340v-89h-272l-23 -172c44.667 31.333 90.334 47 137.001 47
c56 0 102.167 -20.167 138.5 -60.5s54.5 -88.5 54.5 -144.5c0 -72.667 -20 -130.667 -60 -174s-96 -65 -168 -65c-58.667 0 -106.334 13.667 -143.001 41c-39.333 29.333 -63.333 72.333 -72 129h101z" />
    <glyph glyph-name="six" unicode="6" horiz-adv-x="506" 
d="M229 78c30.667 0 58.998 13 84.998 39c9.33301 12 16.333 25 21 39l5 22l2 25c2.66699 31.333 -6.66602 60 -27.999 86s-49.666 39 -84.999 39c-32.667 0 -58.167 -12.5 -76.5 -37.5s-27.5 -54.5 -27.5 -88.5s8.66699 -62.667 26 -86c18.667 -25.333 44.667 -38 78 -38z
M239.998 578c-62.667 0 -104.333 -71.667 -125 -215c44 46 93.667 69 149 69c57.333 0 105 -22 143 -66c33.333 -38.667 50 -89 50 -151c0 -70.667 -18.667 -126.167 -56 -166.5s-91 -60.5 -161 -60.5c-150.667 0 -226 106.333 -226 319c0 242 75.333 363 226 363
c99.333 0 164 -53.333 194 -160h-102c-15.333 45.333 -46 68 -92 68z" />
    <glyph glyph-name="seven" unicode="7" horiz-adv-x="545" 
d="M477 646v-89c-158.667 -176 -238 -361.667 -238 -557h-115c18 182 101.333 367.667 250 557h-340v89h443z" />
    <glyph glyph-name="eight" unicode="8" horiz-adv-x="506" 
d="M229 385c24 0 47.668 11.001 71.001 33.001c10 11.333 17.833 22.666 23.5 33.999s8.5 23.333 8.5 36c0 22 -10.333 43.667 -31 65c-18.667 14.667 -41.334 22 -68.001 22c-20 0 -41.667 -7 -65 -21c-19.333 -16 -29 -38 -29 -66c0 -21.333 9 -45 27 -71
c18 -21.333 39 -32 63 -32zM229.001 307.001c-26.667 0 -52 -12.001 -76 -36.001c-16.667 -22.667 -25 -48.667 -25 -78c0 -31.333 8.33301 -57.666 25 -78.999c18.667 -24 44 -36 76 -36c29.333 0 55.833 11.5 79.5 34.5s35.5 49.167 35.5 78.5
c0 28.667 -12 55.167 -36 79.5s-50.333 36.5 -79 36.5zM332.001 352c83.333 -38 125.001 -91.667 125.001 -161c0 -55.333 -21 -103 -63 -143s-97 -60 -165 -60c-63.333 0 -114.333 16.333 -153 49c-41.333 34 -62 82.333 -62 145c0 74 37.667 130.667 113 170
c-61.333 22 -92 67.333 -92 136c0 55.333 20 99.666 60 132.999c37.333 31.333 84 47 140 47c55.333 0 101.666 -16 138.999 -48c40 -33.333 60 -77.333 60 -132c0 -53.333 -34 -98.666 -102 -135.999z" />
    <glyph glyph-name="nine" unicode="9" horiz-adv-x="518" 
d="M229 578c-33.333 0 -59.334 -14.3311 -78.001 -42.998c-16 -24.667 -24 -54.334 -24 -89.001c0 -34 8.33301 -63.333 25 -88c18.667 -28 44.334 -42 77.001 -42c35.333 0 63.333 13.333 84 40c19.333 24 29 54 29 90c0 35.333 -10.333 66.166 -31 92.499
s-48 39.5 -82 39.5zM353.999 283.002c-39.333 -37.333 -88.332 -55.999 -146.999 -55.999c-60.667 0 -108.334 21 -143.001 63c-33.333 39.333 -50 89.666 -50 150.999c0 71.333 18.167 127.333 54.5 168s89.833 61 160.5 61c152 0 228 -106 228 -318
c0 -106 -13.667 -187.667 -41 -245c-37.333 -79.333 -103 -119 -197 -119c-89.333 0 -154 52.667 -194 158h114c13.333 -45.333 40 -68 80 -68c42 0 75.333 25.333 100 76c9.33301 19.333 16.333 38.333 21 57l7 28z" />
    <glyph glyph-name="colon" unicode=":" horiz-adv-x="278" 
d="M90 418v101h100v-101h-100zM90 0v100h100v-100h-100z" />
    <glyph glyph-name="semicolon" unicode=";" horiz-adv-x="42" 
d="M-404 676l-0.999023 19c-0.666992 18 2 33 8 45l18 24c16 14 35.667 21 59 21c15.333 0 28.666 -2.66699 39.999 -8c24.667 -8 41 -33.333 49 -76c0 -27.333 -7.5 -49.5 -22.5 -66.5s-35.5 -25.5 -61.5 -25.5c-15.333 0 -32 4 -50 12c-22 14 -35 32.333 -39 55z" />
    <glyph glyph-name="less" unicode="&#x3c;" horiz-adv-x="584" 
d="M55 313v82l474 200v-87l-376 -154l376 -156v-88z" />
    <glyph glyph-name="equal" unicode="=" horiz-adv-x="584" 
d="M528 421h-472v82h472v-82zM528 204h-472v82h472v-82z" />
    <glyph glyph-name="greater" unicode="&#x3e;" horiz-adv-x="584" 
d="M529 313l-474 -203v88l375 156l-375 154v87l474 -200v-82z" />
    <glyph glyph-name="question" unicode="?" horiz-adv-x="556" 
d="M230 176v27c0 29.333 5 59 15 89c6.66699 19.333 18 38.333 34 57c8.66699 9.33301 30.334 29.666 65.001 60.999c28 26 47 47 57 63s15 34 15 54c0 36.667 -13.833 67.334 -41.5 92.001s-60.167 37 -97.5 37c-76.667 0 -124.334 -48.333 -143.001 -145l-90 10
c8 66 32 117 72 153s93.333 54 160 54c60.667 0 113.334 -17 158.001 -51c48 -36.667 72 -84.667 72 -144c0 -30.667 -7.83301 -59.834 -23.5 -87.501s-43.834 -59.5 -84.501 -95.5c-27.333 -24 -46 -42.667 -56 -56c-4 -5.33301 -10.667 -19.666 -20 -42.999
c-4.66699 -22 -7 -47 -7 -75h-85zM225 0v100h100v-100h-100z" />
    <glyph glyph-name="at" unicode="@" horiz-adv-x="865" 
d="M164 0c-37.333 0 -71.333 13.1699 -102 39.5029s-46 58.166 -46 95.499v23c0 31.333 16 61.666 48 90.999c30.667 22.667 64 34 100 34h24c37.333 0 70.333 -11.333 99 -34c31.333 -24 47 -54.333 47 -91v-23c0 -30.667 -15.167 -60.834 -45.5 -90.501
s-63.833 -44.5 -100.5 -44.5h-24zM641 57.0029c23.333 0 41.833 8.33301 55.5 25s20.5 36.667 20.5 60c0 24.667 -6.66699 45 -20 61s-32 24 -56 24c-20 0 -38.667 -8.33301 -56 -25c-5.33301 -8 -10 -16.333 -14 -25l-6 -33c0 -24 6.66699 -44 20 -60
c14 -18 32.667 -27 56 -27zM801 135.003c0 -36 -15.668 -67.499 -47.001 -94.499s-65.333 -40.5 -102 -40.5h-23c-37.333 0 -70.666 13 -99.999 39c-31.333 27.333 -47 59.333 -47 96v23c0 35.333 16 65.666 48 90.999c29.333 22.667 62.333 34 99 34h23l29 -1
c8.66699 0 17 -2.33301 25 -7c14 -4 30.333 -13 49 -27c30.667 -22.667 46 -52.667 46 -90v-23zM175.999 57.0039c22.667 0 40.999 9.00098 54.999 27.001c12.667 16 19 35.667 19 59c0 17.333 -6 36.666 -18 57.999c-14 17.333 -32.667 26 -56 26c-24 0 -43 -8 -57 -24
s-21 -36.333 -21 -61c0 -24 6.83301 -44.167 20.5 -60.5s32.834 -24.5 57.501 -24.5zM437.998 635.005c37.333 0 70.334 -11.332 99.001 -33.999c31.333 -24 47 -54.333 47 -91v-22c0 -31.333 -15.167 -61.833 -45.5 -91.5s-63.833 -44.5 -100.5 -44.5h-24
c-38 0 -71.667 13 -101 39c-31.333 27.333 -47 59.666 -47 96.999v22c0 33.333 16 64 48 92c25.333 22 58.666 33 99.999 33h24zM425.999 408.006c22.667 0 40.666 8.66797 53.999 26.001s20 37.666 20 60.999s-6.66699 43 -20 59s-31.333 24 -54 24c-24 0 -43 -8 -57 -24
s-21 -36.333 -21 -61c0 -24 6.83301 -44.167 20.5 -60.5s32.834 -24.5 57.501 -24.5z" />
    <glyph glyph-name="A" unicode="A" horiz-adv-x="760" 
d="M299 238l-0.000976562 -102.999h-80v285h-125v-420h-78v477h408v-57h-125v-113c24 22 58.333 33 103 33c32 0 57.667 -15.333 77 -46c16.667 -26.667 25 -57 25 -91c0 -64 -19 -112.667 -57 -146h170v420h80v-477h-500v57h147c53.333 19.333 80 68 80 146
c0 19.333 -5.33301 36.666 -16 51.999c-11.333 18 -26.333 27 -45 27c-27.333 0 -48.666 -14.667 -63.999 -44z" />
    <glyph glyph-name="B" unicode="B" horiz-adv-x="564" 
d="M377 500c10 0 19.833 4.99805 29.5 14.998s15.5 20 17.5 30v90c0 12.667 -4.66699 22.834 -14 30.501s-20.333 11.5 -33 11.5c-30 0 -45 -14 -45 -42v-90c0 -9.33301 5 -18.666 15 -27.999s20 -15 30 -17zM389 327.998c30.667 0 57.166 -11.166 79.499 -33.499
s33.5 -48.833 33.5 -79.5v-80c0 -39.333 -18.333 -73 -55 -101c-30 -22.667 -68.333 -34 -115 -34h-45c-74.667 0 -140 39 -196 117c-51.333 71.333 -77 145.666 -77 222.999v80c0 94 31.333 170.5 94 229.5s141.334 88.5 236.001 88.5h45c31.333 0 58 -11.667 80 -35
s33 -49.333 33 -78v-47c0 -38.667 -9 -70.334 -27 -95.001c-20 -28 -48.667 -42 -86 -42h-34c-30.667 0 -55.5 10.833 -74.5 32.5s-28.5 49.5 -28.5 83.5v56c0 30.667 7.66699 53.667 23 69c-56 -15.333 -101 -50.666 -135 -105.999c-30.667 -51.333 -46 -107.333 -46 -168
v-68c0 -60 17.667 -119 53 -177c38 -62 84.667 -101.333 140 -118c-4 4 -11.333 18.667 -22 44l-13 57v69c0 30 9.83301 56.333 29.5 79s44.167 34 73.5 34h34zM413.999 221.999c-1.33301 18 -3.33301 29.333 -6 34c-4.66699 8 -15 12 -31 12c-30 0 -45 -13.667 -45 -41
v-125c0 -29.333 15 -44 45 -44c34 0 49.667 14.667 47 44z" />
    <glyph glyph-name="C" unicode="C" horiz-adv-x="1164" 
d="M1020 432l0.00195312 -307.002h-69v307h-45c-14 0 -27.167 -4.5 -39.5 -13.5s-18.5 -20.167 -18.5 -33.5v-260h-67v238c0 14.667 -6.33301 29.167 -19 43.5s-25.667 22.833 -39 25.5h-57c-18 0 -35.833 -6.16699 -53.5 -18.5s-31.167 -27.166 -40.5 -44.499
c-3.33301 -6 -6 -15.667 -8 -29c13.333 10 30.666 15 51.999 15c24 0 45.333 -6 64 -18c22 -13.333 33 -31.333 33 -54v-80c0 -22 -11.5 -40.5 -34.5 -55.5s-46.167 -22.5 -69.5 -22.5c-22.667 0 -46.334 7.33301 -71.001 22c-28 16.667 -42 35.334 -42 56.001v113
c0 44.667 17 82.667 51 114s73.667 47 119 47h47c42 0 72 -12 90 -36c17.333 24 48 36 92 36h238v-45h-113zM145.002 374.998c-22.667 0 -38.333 -11.667 -47 -35v-69c6 -22 23.667 -33 53 -33c25.333 0 38 11 38 33v69c0 8.66699 -5 16.667 -15 24s-19.667 11 -29 11z
M1133 56.998l-0.00195312 -57h-1080c-8.66699 0 -15.5 2.5 -20.5 7.5s-9.16699 13.5 -12.5 25.5v33c0 24 7 36 21 36c91.333 0 165 15.333 221 46c50.667 28 76 69 76 123v45c0 22 -15 46.667 -45 74c-27.333 20 -54 30 -80 30c16 -6 29.5 -18.333 40.5 -37
s16.5 -37 16.5 -55v-33c0 -32 -14.167 -58.833 -42.5 -80.5s-59.166 -32.5 -92.499 -32.5s-60.333 8.33301 -81 25c-22.667 18 -34 43.333 -34 76v45c0 44.667 21.667 81.667 65 111c38.667 25.333 81.334 38 128.001 38h45c44.667 0 82.167 -15.5 112.5 -46.5
s45.5 -69.167 45.5 -114.5v-56c0 -101.333 -86.667 -169 -260 -203h977zM564.001 259.998v-69c0 -21.333 14 -32 42 -32c26 0 39 10.667 39 32v69c0 22.667 -13 34 -39 34c-28 0 -42 -11.333 -42 -34z" />
    <glyph glyph-name="D" unicode="D" horiz-adv-x="1002" 
d="M586 420c-22 0 -41.0039 -7.99805 -57.0039 -23.998c38 -36 57 -77.667 57 -125v-158c0 -34 -12.167 -60.833 -36.5 -80.5s-54.166 -29.5 -89.499 -29.5c-31.333 0 -59.833 9.16699 -85.5 27.5s-38.5 45.833 -38.5 82.5v158c0 40 22.667 81.667 68 125
c-23.333 16 -53.666 24 -90.999 24h-92c-34.667 0 -64.167 -14.167 -88.5 -42.5s-36.5 -59.833 -36.5 -94.5c20.667 20.667 45.334 31 74.001 31c26.667 0 49.667 -9.83301 69 -29.5s29 -42.834 29 -69.501v-102c0 -34 -12.167 -60.833 -36.5 -80.5
s-54.166 -29.5 -89.499 -29.5s-64.333 9.33301 -87 28c-24.667 20 -37 47.333 -37 82v147c0 54.667 20.333 104.5 61 149.5s88 67.5 142 67.5h115l32 -3c8 -0.666992 20 -4 36 -10s35 -13.667 57 -23c42 24 68 36 78 36h68c53.333 0 94.333 -19.667 123 -59
c25.333 -34.667 38 -79.667 38 -135v-158c0 -58.667 -12 -120 -36 -184h125v536h81v-592h-239c-68 -105.333 -193 -158 -375 -158c-210 0 -320 41.667 -330 125c0 50 19 79.667 57 89h592c30 53.333 45 121.666 45 204.999v114c0 31.333 -6.33301 63.333 -19 96
c-15.333 42.667 -36 64 -62 64h-21zM187.996 191.002c-16 31.333 -31 47 -45 47c-12 0 -22.833 -4.83301 -32.5 -14.5s-14.5 -20.5 -14.5 -32.5v-89c0 -29.333 15.333 -44 46 -44s46 14.667 46 44v89zM505.996 102.002l-0.000976562 181c0 29.333 -14.667 44 -44 44
c-7.33301 0 -18.666 -4 -33.999 -12c-9.33301 -8 -14 -18.667 -14 -32v-181c0 -29.333 15.667 -44 47 -44c12 0 22.5 4 31.5 12s13.5 18.667 13.5 32zM606.995 -114.998h-543.999l-3 -18c0 -24.667 24.667 -45 74 -61c46.667 -15.333 110 -23 190 -23
c135.333 0 229.666 34 282.999 102z" />
    <glyph glyph-name="E" unicode="E" horiz-adv-x="762" 
d="M186 -205c106 0 175 30 207 90h-389c0 -49.333 60.667 -79.333 182 -90zM299 203c26 20 54.667 30.001 86 30.001c34 0 62.333 -11.5 85 -34.5s34 -51.5 34 -85.5v-103c0 -34 -4 -57 -12 -69h137v536h80v-592h-234c-56 -98 -152.333 -147 -289 -147
c-74.667 0 -136.334 15.333 -185.001 46c-43.333 27.333 -65 57.666 -65 90.999c0 18 4 34.667 12 50c8.66699 10.667 23.334 16 44.001 16h420c8 12 12 38.667 12 80v81c0 45.333 -17.667 68 -53 68c-26.667 0 -50.667 -11.667 -72 -35v-135h-80v420h-125v-420h-78v477h420
v-57h-137v-217z" />
    <glyph glyph-name="F" unicode="F" horiz-adv-x="865" 
d="M176 477l21.001 -45c-22.667 -14 -46 -41 -70 -81l-12 -25l-10 -29l-7 -28l-2 -31v-103c0 -84.667 30 -159 90 -223s132 -96 216 -96h69c60.667 0 117.5 23.333 170.5 70s79.5 99.667 79.5 159v68c0 83.333 -26.667 125 -80 125h-57v-92
c0 -97.333 -68.333 -146 -205 -146c-46 0 -86.333 10.667 -121 32c-40.667 25.333 -61 59.666 -61 102.999v92c0 13.333 6.16699 28 18.5 44s25.166 24 38.499 24h47v182h420v-57h-137v-125h68c46 0 82.333 -15 109 -45s40 -68.333 40 -115v-90
c0 -78.667 -32.333 -147 -97 -205c-60 -53.333 -126.667 -80 -200 -80h-113c-104 0 -192.5 36.333 -265.5 109s-109.5 161.334 -109.5 266.001v92c0 114 53.333 197.333 160 250zM504.001 295v125h-125v-125h125zM289.001 215v-90c0 -11.333 11 -27 33 -47
c22 -14 45 -21 69 -21s48 6.66699 72 20c27.333 16 41 35.333 41 58v103h-191c-16 0 -24 -7.66699 -24 -23z" />
    <glyph glyph-name="G" unicode="G" horiz-adv-x="865" 
d="M596 -137l-0.000976562 -23.001h-80v160h-272v477h78v-420h194v328c0 20 12 41.667 36 65c24 18 57.333 27 100 27c99.333 0 149 -53.667 149 -161v-226c0 -25.333 -7.16699 -46.666 -21.5 -63.999s-33.833 -26 -58.5 -26h-125v-92c23.333 23.333 54 35 92 35
c59.333 0 89 -26.667 89 -80c0 -54.667 -27 -98.334 -81 -131.001c-46 -27.333 -98.333 -41 -157 -41h-113c-109.333 0 -203 29 -281 87c-86 64 -129 149 -129 255c0 88.667 9 164 27 226c14.667 51.333 43.334 105 86.001 161l47 -35
c-53.333 -95.333 -80 -212.666 -80 -351.999c0 -76.667 31.333 -141.667 94 -195c69.333 -58.667 152 -88 248 -88c172.667 0 259 34 259 102c0 12 -4.66699 21.667 -14 29s-20.333 11 -33 11c-22.667 0 -40.667 -9.66699 -54 -29zM595.999 362.999l-0.000976562 -306h92
c22 0 33 18.667 33 56v203c0 69.333 -23 104 -69 104c-13.333 0 -27.666 -7 -42.999 -21c-8.66699 -10.667 -13 -22.667 -13 -36z" />
    <glyph glyph-name="H" unicode="H" horiz-adv-x="633" 
d="M287 57v328c0 25.333 11.833 47 35.5 65s57.5 27 101.5 27c97.333 0 146 -53.667 146 -161v-226c0 -60 -26 -90 -78 -90h-478v477h80v-420h193zM492 316c0 69.333 -22.667 104 -68 104c-13.333 0 -28 -7 -44 -21c-8.66699 -10.667 -13 -22.667 -13 -36v-306h90
c23.333 0 35 18.667 35 56v203zM389 -68l159.996 0.000976562v-57h-182c-12 -106.667 -80.333 -160 -205 -160c-35.333 0 -67.666 10 -96.999 30c-34 22 -51 49.667 -51 83v24c0 16.667 6 33 18 49c12.667 12.667 25.334 19 38.001 19l35 -45l-11 -12
c-6.66699 -7.33301 -10 -17 -10 -29s8.33301 -26.667 25 -44c16.667 -12.667 34.334 -19 53.001 -19c40 0 68.667 8.66699 86 26c6 4.66699 14.833 21.5 26.5 50.5s23.834 49.167 36.501 60.5c-16 16 -24 46.667 -24 92h80c0 -34.667 7.33301 -57.334 22 -68.001z" />
    <glyph glyph-name="I" unicode="I" horiz-adv-x="727" 
d="M412 307l-0.000976562 -182.001h-78v170c0 30.667 -7.66699 58 -23 82c-17.333 28.667 -40.333 43 -69 43h-33c-11.333 0 -23.666 -4.83301 -36.999 -14.5s-20 -19.834 -20 -30.501c32 0 59 -9.33301 81 -28s33 -44 33 -76v-33c0 -33.333 -12 -60.5 -36 -81.5
s-53.667 -31.5 -89 -31.5c-32 0 -60.833 12.833 -86.5 38.5s-38.5 54.5 -38.5 86.5v45c0 51.333 17.333 94.5 52 129.5s77.667 52.5 129 52.5h33c25.333 0 51.666 -8 78.999 -24c22 -12.667 41.333 -31.667 58 -57c29.333 54 71 81 125 81h35c46 0 80.667 -15.667 104 -47
c20.667 -28 31 -66 31 -114v-125c0 -52 -19 -95.167 -57 -129.5s-83.333 -51.5 -136 -51.5h-239c-29.333 0 -58.333 -9.66699 -87 -29c-32.667 -21.333 -49 -45.666 -49 -72.999v-45c0 -21.333 11.833 -42 35.5 -62s46.167 -30 67.5 -30h33c22.667 0 45.667 13.333 69 40
s35 51.334 35 74.001v56h78v-89c0 -18 8.83301 -36 26.5 -54s35.5 -27 53.5 -27h12c18.667 0 36.667 8.83301 54 26.5s26 35.834 26 54.501v33c0 28 -7.66699 50.667 -23 68l44 47c10 -6 22.667 -19.667 38 -41c12.667 -25.333 19 -46.333 19 -63v-56
c0 -37.333 -13.167 -67.5 -39.5 -90.5s-58.166 -34.5 -95.499 -34.5h-47c-50 0 -87.667 22.667 -113 68c-33.333 -45.333 -82.666 -68 -147.999 -68h-45c-42 0 -78.333 12.333 -109 37c-32.667 26 -49 59.333 -49 100v56c0 46.667 25 85.667 75 117
c43.333 27.333 93.666 41 150.999 41h217c32 0 60.833 12.833 86.5 38.5s38.5 54.5 38.5 86.5v116c0 20 -6.33301 43 -19 69c-14.667 29.333 -31 44 -49 44h-24c-14.667 0 -32 -9 -52 -27c-18.667 -22.667 -28 -51.334 -28 -86.001zM185.999 214.999l0.000976562 68
c0 20.667 -15.333 31 -46 31s-46 -10.333 -46 -31v-68l21 -22l26 -11l7 3l19 9c7.33301 5.33301 13.666 12.333 18.999 21z" />
    <glyph glyph-name="J" unicode="J" horiz-adv-x="818" 
d="M39 -115c0 -33.333 21.668 -57.667 65.001 -73c30 -11.333 65 -17 105 -17h57c83.333 0 143.666 30 180.999 90h-408zM322.001 294.999v125h-125v-125h125zM402.001 237.999v-91.999c0 -97.333 -68.333 -146 -205 -146c-46 0 -86.333 10.667 -121 32
c-40 25.333 -60 59.666 -60 102.999v92c0 11.333 6 26.666 18 45.999l18 16c6 4 12.667 6 20 6h47v182h420v-57h-137v-125h80c31.333 0 56.166 -10.833 74.499 -32.5s27.5 -48.5 27.5 -80.5v-92l1 -24c1.33301 -34 -6 -75.667 -22 -125h113v536h78v-592h-215
c-71.333 -98 -158.666 -147 -261.999 -147h-68c-49.333 0 -97 11 -143 33c-55.333 26.667 -87 61.334 -95 104.001v33c0 22 30.667 33 92 33h419c14.667 46 22 95.667 22 149v92c0 37.333 -19 56 -57 56h-45zM129.001 238c-14.667 0 -22 -7.66699 -22 -23v-90
c0 -11.333 11 -27 33 -47c22 -14 45 -21 69 -21s48 6.66699 72 20c27.333 16 41 35.333 41 58v103h-193z" />
    <glyph glyph-name="K" unicode="K" horiz-adv-x="887" 
d="M176 396c-20 -20 -38.333 -50.166 -55 -90.499s-25 -74.5 -25 -102.5v-215c0 -62.667 26.333 -115.334 79 -158.001c49.333 -39.333 106.333 -59 171 -59c68 0 119.333 21.667 154 65c30 38 43.667 81.667 41 131l-2 33h-273v477h80v-420h193v328
c0 25.333 11.833 47 35.5 65s57.5 27 101.5 27c97.333 0 146 -53.667 146 -161v-226c0 -60 -26 -90 -78 -90h-125l1 -32c5.33301 -176.667 -86 -265 -274 -265c-85.333 0 -161 27.667 -227 83c-68.667 58.667 -103 130 -103 214v191c0 40 12.333 86.667 37 140
c26 57.333 55.333 94 88 110zM744 113.001v203c0 69.333 -22.667 104 -68 104c-13.333 0 -28 -7 -44 -21c-8.66699 -10.667 -13 -22.667 -13 -36v-306h90c23.333 0 35 18.667 35 56z" />
    <glyph glyph-name="L" unicode="L" horiz-adv-x="818" 
d="M391 215l-0.000976562 -215.002h-78v477h78v-217c6 6 15.667 13.333 29 22l27 13h35c32.667 0 60.667 -15 84 -45c27.333 -35.333 41 -84.666 41 -147.999v-36c0 -67.333 -26.5 -123.833 -79.5 -169.5s-113.5 -68.5 -181.5 -68.5h-57c-79.333 0 -146.333 42 -201 126
c-48 74 -72 153 -72 237v104c0 108.667 31.333 200.667 94 276c66 80 152.333 120 259 120h57c86.667 0 162.334 -27 227.001 -81c67.333 -57.333 101 -128.666 101 -213.999v-396h-78v396c0 68 -24.667 124.833 -74 170.5s-108 68.5 -176 68.5h-57
c-77.333 0 -143.666 -40.667 -198.999 -122c-49.333 -72.667 -74 -149.334 -74 -230.001v-92c0 -67.333 15 -131.666 45 -192.999c37.333 -75.333 86.666 -113 147.999 -113h57c44 0 85.167 19.167 123.5 57.5s57.5 79.5 57.5 123.5v59c0 26 -6.33301 51.333 -19 76
c-4 11.333 -10 20.333 -18 27c-4.66699 6.66699 -11 10 -19 10h-24l-10 -1l-20 -7c-6 -2 -14.667 -7 -26 -15z" />
    <glyph glyph-name="M" unicode="M" horiz-adv-x="1132" 
d="M824 -273c51.333 0 92.667 18.665 124 55.998c25.333 30.667 38 63.334 38 98.001v56c0 24.667 -5.66699 45.667 -17 63c-6.66699 13.333 -20 23 -40 29c-12.667 0 -22.334 -3.33301 -29.001 -10l-19 -19v-160h-78v170h-115
c-24.667 -57.333 -70.334 -104.666 -137.001 -141.999c-62 -34.667 -126 -52 -192 -52h-56c-64 0 -122.667 13 -176 39c-65.333 32 -101.666 76.333 -108.999 133v22c0 37.333 30.333 56 91 56h516c4 18 6 37.667 6 59v33c0 69.333 -17 132.666 -51 189.999
c-28 48 -56 72 -84 72c10 -10 18.333 -24.667 25 -44l4 -19l4 -17v-69c0 -32 -13.333 -57.667 -40 -77c-24 -16.667 -52.667 -25 -86 -25s-61.666 8.66699 -84.999 26c-26 18.667 -39 44 -39 76v81c0 35.333 14.333 65.333 43 90c26.667 23.333 58 35 94 35h57
c74 0 134.333 -33 181 -99c38 -53.333 57 -122.666 57 -207.999v-57l-4 -47h96v411h78v-411c13.333 13.333 33.333 20 60 20c39.333 0 70.666 -17 93.999 -51c20.667 -30 31 -65.667 31 -107v-57c0 -51.333 -23.333 -97.666 -70 -138.999s-96 -62 -148 -62h-80
c-39.333 0 -77.5 10.167 -114.5 30.5s-55.5 43.833 -55.5 70.5v24c0 15.333 7 33 21 53c12.667 17.333 32.334 29.666 59.001 36.999l45 -33c-30 -10 -45 -33 -45 -69c0 -12 9.66699 -24.333 29 -37c24 -12.667 44.333 -19 61 -19h56zM404.001 419.998
c-8.66699 0 -17.833 -5.16797 -27.5 -15.501s-15.5 -20.166 -17.5 -29.499v-115c0 -21.333 14.333 -32 43 -32c31.333 0 47 10.667 47 32v115c0 10 -5 20 -15 30s-20 15 -30 15zM359.002 -125.003c48.667 0 95.167 12.168 139.5 36.501s78.166 57.166 101.499 98.499h-502
v-22c0 -35.333 26.667 -64.333 80 -87c42.667 -17.333 84.334 -26 125.001 -26h56z" />
    <glyph glyph-name="N" unicode="N" horiz-adv-x="588" 
d="M311 0v420h-217v-420h-80v477h511v-57h-136v-420h-78zM549 227c0 -38 -19 -56.999 -57 -56.999c-31.333 0 -47 22.667 -47 68c0 35.333 16.667 53 50 53c11.333 0 24 -6 38 -18l10 -17c4 -6.66699 6 -16.334 6 -29.001zM195 170.001c-30.667 0 -46 18.668 -46 56.001
c0 17.333 4.5 33.166 13.5 47.499s21.833 21.5 38.5 21.5c12 0 23.667 -5.66699 35 -17c10.667 -14.667 16 -31.667 16 -51c0 -38 -19 -57 -57 -57z" />
    <glyph glyph-name="O" unicode="O" 
d="M14 0v477h80v-420h488v-57h-568zM431 321c34.667 0 65.665 -8.66797 92.998 -26.001c30.667 -20 46 -46.667 46 -80v-33c0 -15.333 -8 -30.666 -24 -45.999s-34 -23 -54 -23h-47c-23.333 0 -44.666 9 -63.999 27c-15.333 20 -22.666 41.667 -21.999 65l1 28l7 17
c-18 0 -35.833 -8.66699 -53.5 -26s-26.5 -35.333 -26.5 -54v-24c0 -22 11 -51.667 33 -89h-78l-22 42l-13 47v36c0 38 17.667 71.333 53 100c32.667 26 68.667 39 108 39h63zM423.998 202.999c0 -22 11 -33 33 -33c23.333 0 35 11 35 33v24c0 21.333 -11.667 32 -35 32
c-22 0 -33 -10.667 -33 -32v-24z" />
    <glyph glyph-name="P" unicode="P" horiz-adv-x="31" 
d="M-217 477l-79.998 -0.00195312l-22 44l-7 25l-4 20v36c0 38 17.333 69 52 93c31.333 21.333 66.666 32 105.999 32h63c36.667 0 67.667 -6.33301 93 -19c32.667 -16 49 -40.333 49 -73v-33c0 -15.333 -8 -30.666 -24 -45.999s-34.667 -23 -56 -23h-45
c-26 0 -47.167 8.66699 -63.5 26s-24.5 40 -24.5 68c0 12.667 0.666992 20.334 2 23.001l6 20c-18.667 0 -36.334 -8.66699 -53.001 -26s-25 -35.333 -25 -54v-24c0 -22 11 -51.667 33 -89zM-46.998 645.998c0 22 -11 33 -33 33c-23.333 0 -35 -11 -35 -33v-21
c0 -23.333 11.667 -35 35 -35c22 0 33 11.667 33 35v21z" />
    <glyph glyph-name="Q" unicode="Q" horiz-adv-x="898" 
d="M482 0l-80 -0.000976562v420h-158c-45.333 0 -83 -15.333 -113 -46c-23.333 -23.333 -35 -49.666 -35 -78.999c16 16 36.667 24 62 24c28 0 53 -10.5 75 -31.5s33 -45.167 33 -72.5v-102c0 -26 -14.333 -51.333 -43 -76s-56 -37 -82 -37c-35.333 -0 -65 10.333 -89 31
s-36 48 -36 82v147c0 60 19.333 111.167 58 153.5s87.667 63.5 147 63.5h398v-57h-137v-420zM96 190.999l-0.000976562 -89c0 -29.333 15 -44 45 -44c31.333 0 47 14.667 47 44v89c0 29.333 -15.667 44 -47 44c-11.333 0 -21.666 -4.5 -30.999 -13.5s-14 -19.167 -14 -30.5z
M538.999 190.999l-57 -0.00195312v69h69c38.667 0 69.167 -12.667 91.5 -38s33.5 -57.666 33.5 -96.999v-115c0 -30 -4 -53 -12 -69h90v536h80v-592h-193c-56 -98 -150.667 -147 -284 -147h-125c-52 0 -100.667 8.66699 -146 26c-61.333 22.667 -92 55.667 -92 99v33
c0 30 37.667 45 113 45h481c5.33301 8.66699 8 28.334 8 59.001v102c0 20 -4.66699 38.667 -14 56c-10.667 22 -25 33 -43 33zM345.999 -217.003c42.667 0 85 9.66699 127 29c44.667 20.667 74.667 45 90 73h-512c0 -27.333 25 -53 75 -77c52 -16.667 102.333 -25 151 -25
h69z" />
    <glyph glyph-name="R" unicode="R" 
d="M320 135v103h-193c-14.667 0 -22 -7.66699 -22 -23v-90c0 -11.333 11 -27 33 -47c22 -14 45 -21 69 -21s48 6.66699 72 20c27.333 16 41 35.333 41 58zM117 477l420 0.00195312v-57h-137v-125h194v-57h-33v-238h-81v238h-80v-92c0 -97.333 -68.333 -146 -205 -146
c-46 0 -86.333 10.667 -121 32c-40 25.333 -60 59.666 -60 102.999v92c0 11.333 6 26.666 18 45.999l18 16c6 4 12.667 6 20 6h47v182zM320 295.002v125h-125v-125h125z" />
    <glyph glyph-name="S" unicode="S" horiz-adv-x="1129" 
d="M996 90c0 18.667 -6.66797 39.333 -20.001 62c-14.667 26 -30.667 39 -48 39h-22l-29 -6c-6.66699 -2 -16.334 -7 -29.001 -15v-170h-78v420h-57c-20 0 -36.333 -6.33301 -49 -19s-19 -29 -19 -49v-352h-81v328c0 18.667 -6.66699 38 -20 58
c-14.667 22.667 -30.667 34 -48 34h-68c-37.333 0 -67.5 -13.333 -90.5 -40s-34.5 -59 -34.5 -97c20.667 20.667 45 31 73 31c26 0 48.667 -10 68 -30s29 -43 29 -69v-102c0 -34 -12.167 -60.833 -36.5 -80.5s-54.166 -29.5 -89.499 -29.5s-64.333 9.33301 -87 28
c-24.667 20 -37 47.333 -37 82v147c0 54 20.833 103.667 62.5 149s89.167 68 142.5 68h56c41.333 0 78.666 -19 111.999 -57c26 38 61 57 105 57h283v-57h-136v-182l39 16c10 4 19.667 6 29 6h12c42.667 0 77.667 -13.667 105 -41c13.333 -10 23.833 -25.5 31.5 -46.5
s11.5 -40.833 11.5 -59.5v-47c0 -130.667 -53.333 -227 -160 -289c-85.333 -49.333 -198.666 -74 -339.999 -74h-80c-70 0 -142 18.667 -216 56s-133 84 -177 140c-55.333 70 -83 145.333 -83 226v45c0 45.333 8.33301 94 25 146s38 97.667 64 137l57 -33
c-45.333 -70 -68 -157.333 -68 -262v-45c0 -80.667 44.333 -160.334 133 -239.001c86.667 -76 171 -114 253 -114h80c112.667 0 208.334 22.333 287.001 67c96.667 54.667 145 134.334 145 239.001v24zM302.999 190.999l-0.000976562 -89c0 -29.333 15 -44 45 -44
c31.333 0 47 14.667 47 44v89c0 29.333 -15.667 44 -47 44c-11.333 0 -21.666 -4.5 -30.999 -13.5s-14 -19.167 -14 -30.5z" />
    <glyph glyph-name="T" unicode="T" horiz-adv-x="1072" 
d="M449 238l-45 0.00292969v-92c0 -97.333 -68.333 -146 -205 -146c-46 0 -86.333 10.667 -121 32c-40 25.333 -60 59.666 -60 102.999v92c0 11.333 6 26.666 18 45.999l18 16c6 4 12.667 6 20 6h47v182h420v-57h-137v-125h57c50 0 84 -19 102 -57
c25.333 36.667 60.333 55 105 55c30.667 0 55 -9.33301 73 -28s27 -43.334 27 -74.001c0 -41.333 -23 -86 -69 -134h319v-57h-375v66c28.667 24.667 43 57 43 97c0 16 -3.33301 31.667 -10 47c-8 18.667 -19 28 -33 28c-20 0 -36.5 -6.33301 -49.5 -19s-19.5 -29 -19.5 -49
v-170h-78v170c0 45.333 -15.667 68 -47 68zM109 125.003c0 -11.333 11 -27 33 -47c22 -14 45 -21 69 -21s48 6.66699 72 20c27.333 16 41 35.333 41 58v103h-193c-14.667 0 -22 -7.66699 -22 -23v-90zM199 295.003h125v125h-125v-125z" />
    <glyph glyph-name="U" unicode="U" horiz-adv-x="830" 
d="M563 158v-157.999h-81v420h-125v-420h-80v477h420v-57h-134v-205c20.667 16.667 44 25 70 25c44 0 78 -18.667 102 -56c20.667 -32 31 -71.333 31 -118c0 -107.333 -36.333 -191.666 -109 -252.999c-68 -57.333 -156.667 -86 -266 -86
c-103.333 0 -191.666 34.833 -264.999 104.5s-110 155.834 -110 258.501c0 75.333 18 150 54 224c27.333 55.333 62.666 101.666 105.999 138.999l45 -33c-32.667 -32.667 -59 -73.334 -79 -122.001c-10.667 -26 -21.667 -60.333 -33 -103
c-8.66699 -32.667 -13 -67.667 -13 -105c0 -80 29.333 -151.167 88 -213.5s127.667 -93.5 207 -93.5c91.333 0 165 28.667 221 86c50.667 51.333 76 114 76 188c0 29.333 -5.33301 55.666 -16 78.999c-14 29.333 -34 44 -60 44c-18 0 -34.333 -7.33301 -49 -22z" />
    <glyph glyph-name="V" unicode="V" 
d="M480 0l-125 -148.001l-44 44l89 104v420h-158c-45.333 0 -83 -15.333 -113 -46c-23.333 -23.333 -35 -49.666 -35 -78.999c16 16 36.667 24 62 24c28 0 53 -10.5 75 -31.5s33 -45.167 33 -72.5v-102c0 -26 -14.333 -51.333 -43 -76s-56 -37 -82 -37
c-35.333 -0 -65 10.333 -89 31s-36 48 -36 82v147c0 60 19.333 111.167 58 153.5s87.667 63.5 147 63.5h398v-57h-137v-420zM94 190.999l-0.000976562 -89c0 -29.333 15 -44 45 -44c31.333 0 47 14.667 47 44v89c0 29.333 -15.667 44 -47 44
c-11.333 0 -21.666 -4.5 -30.999 -13.5s-14 -19.167 -14 -30.5z" />
    <glyph glyph-name="W" unicode="W" horiz-adv-x="783" 
d="M537 316l0.000976562 -237.999c0 -37.333 -7 -83 -21 -137h125v536h78v-592h-215c-58 -98 -156.333 -147 -295 -147c-80.667 0 -143.334 16 -188.001 48c-34.667 24.667 -52 57.667 -52 99c0 37.333 18.667 56 56 56h411l8 29l9 41c4 18 6 44.333 6 79v226
c0 22 -7.66699 44.333 -23 67c-17.333 24.667 -36.333 37 -57 37c-22 0 -41 -10 -57 -30l-9 -14l-9 -22l-5 -25v-329h-80v340c0 16.667 -5.66699 34.167 -17 52.5s-24.666 27.5 -39.999 27.5s-30.5 -8 -45.5 -24s-22.5 -30.667 -22.5 -44v-352h-78v352
c0 29.333 14 58.666 42 87.999c29.333 24.667 60.666 37 93.999 37c28 0 58.667 -12 92 -36c22 -19.333 33 -34.333 33 -45c19.333 54 57.333 81 114 81c44.667 0 80.167 -15.5 106.5 -46.5s39.5 -69.167 39.5 -114.5zM35.001 -111.999l-4 -10c0 -26.667 22 -48.667 66 -66
c35.333 -13.333 68.666 -20 99.999 -20c120.667 0 192.334 31 215.001 93z" />
    <glyph glyph-name="X" unicode="X" horiz-adv-x="727" 
d="M242 -137c0 21.333 -11.333 32 -34 32s-34 -10.667 -34 -32s11.333 -32 34 -32s34 10.667 34 32zM186 102v89c0 30 -15.667 45 -47 45c-7.33301 0 -18 -4 -32 -12c-8.66699 -8.66699 -13 -19.667 -13 -33v-89c0 -29.333 15.333 -44 46 -44s46 14.667 46 44zM277 -104
l-0.00390625 -44c0 -24 -19.333 -43 -58 -57l46 -4c70.667 -6 112.667 18 126 72c0 34.667 15 60.667 45 78c-21.333 6 -46 22.333 -74 49c-13.333 15.333 -23.333 31 -30 47l-7 24l-3 29v23c0 28.667 13 60 39 94c22 28.667 43 43 63 43h56
c24.667 0 38.667 -0.333008 42 -1s5 -4.33398 5 -11.001v-11c-5.33301 0 -16 -8.33301 -32 -25c-10 -16 -15 -30.667 -15 -44v-23c0 -6.66699 6 -19 18 -37c8.66699 -9.33301 18.334 -16 29.001 -20h10c14.667 0 26.667 12.333 36 37c7.33301 19.333 11 37.666 11 54.999v33
c0 67.333 -25.667 122 -77 164c-43.333 35.333 -97.666 53 -162.999 53h-57c-56 0 -103.667 -15.333 -143 -46c-33.333 -26 -50 -52.333 -50 -79c16 16 36.333 24 61 24c28.667 0 54.334 -10.167 77.001 -30.5s34 -44.833 34 -73.5v-102c0 -33.333 -13 -60.666 -39 -81.999
c-23.333 -19.333 -52.333 -29 -87 -29c-35.333 0 -64.833 9.83301 -88.5 29.5s-35.5 46.834 -35.5 81.501v158c0 53.333 30.667 102 92 146c57.333 40 113.666 60 168.999 60h90c83.333 0 155 -26 215 -78c53.333 -46 80 -103.333 80 -172v-81
c0 -31.333 -11.167 -60 -33.5 -86s-48.833 -39 -79.5 -39h-33c-24 0 -46.667 14 -68 42c-17.333 28.667 -26 59 -26 91c0 16.667 0.666992 26 2 28c-30 -34 -45 -64.667 -45 -92c0 -31.333 13 -60 39 -86s54.667 -39 86 -39h125v-57h-92
c-17.333 0 -34.666 -7.16699 -51.999 -21.5s-26 -29.833 -26 -46.5v-24c0 -17.333 -13 -36 -39 -56c-13.333 -7.33301 -27.666 -12.333 -42.999 -15l-26 -5l-29 -2h-56c-38.667 0 -72 9 -100 27c-32.667 21.333 -49 50.333 -49 87v33c0 14 6 26.833 18 38.5s25 17.5 39 17.5
h35c14.667 0 29 -4 43 -12c16.667 -8.66699 25 -19.667 25 -33z" />
    <glyph glyph-name="Y" unicode="Y" horiz-adv-x="898" 
d="M96 102c0 -29.333 14.999 -44 44.999 -44c31.333 0 47 14.667 47 44v89c0 29.333 -15.667 44 -47 44c-11.333 0 -21.666 -4.5 -30.999 -13.5s-14 -19.167 -14 -30.5v-89zM-6.00098 -125c0 44 19.001 65.999 57.001 65.999h387v65c-69.333 16 -104 59 -104 129v181
c0 24 -7.33301 46.667 -22 68c-16 24 -35.333 36 -58 36h-33c-35.333 0 -65 -13.833 -89 -41.5s-36 -59.5 -36 -95.5c20.667 20.667 45 31 73 31c26 0 48.667 -10 68 -30s29 -43 29 -69v-102c0 -26 -14.333 -51.333 -43 -76s-56 -37 -82 -37c-35.333 0 -65 10.333 -89 31
s-36 48 -36 82v147c0 52.667 21 102 63 148s89.333 69 142 69h45c46 0 82.167 -15.167 108.5 -45.5s39.5 -68.833 39.5 -115.5v-181c0 -20 8.33301 -38.667 25 -56c14.667 -12.667 32.667 -19 54 -19c22.667 0 41.5 6.83301 56.5 20.5s22.5 31.834 22.5 54.501v181
c0 28.667 -9 58 -27 88c-16.667 22.667 -37.667 39 -63 49l34 47c41.333 -13.333 74.333 -36.5 99 -69.5s37 -71.167 37 -114.5v-170c0 -38 -13.333 -70.667 -40 -98c-24.667 -24 -56.667 -40 -96 -48v-59h238v536h80v-592h-320c-50 -98 -140 -147 -270 -147
c-76 0 -139.667 16 -191 48c-30.667 19.333 -50.334 49 -59.001 89zM428 -115.001l-356 -0.000976562c0 -17.333 13 -37 39 -59l24 -12l32 -10l35 -7l42 -2c42 -2 82.333 7.33301 121 28c30.667 16.667 51.667 37.334 63 62.001z" />
    <glyph glyph-name="Z" unicode="Z" horiz-adv-x="1314" 
d="M463 328c-6.66699 0 -17 -5 -31 -15c-4 -4 -8.66699 -14 -14 -30v-181c0 -28 14.667 -42 44 -42c30.667 0 46 14 46 42v181c0 20 -15 35 -45 45zM1168 -59l0.00195312 535.996h80v-592h-285c-87.333 -98 -216.333 -147 -387 -147h-340c-63.333 0 -118.333 10.667 -165 32
c-48.667 22.667 -73 50 -73 82v33c0 37.333 34 56 102 56h818c53.333 70.667 80 135.334 80 194.001v115c0 113.333 -30.667 170 -92 170c-17.333 0 -36 -4 -56 -12c15.333 -13.333 28.666 -34.666 39.999 -63.999c3.33301 -9.33301 7.33301 -22 12 -38l4 -35v-158
c0 -35.333 -13 -63.333 -39 -84c-23.333 -18.667 -52.333 -28 -87 -28c-36 0 -65.667 9.83301 -89 29.5s-35 47.167 -35 82.5v158c0 40 23 85.667 69 137c-16 8 -42.667 12 -80 12h-45c-30 0 -53 -4 -69 -12c10.667 -10.667 24.334 -32 41.001 -64
c7.33301 -17.333 11.333 -30 12 -38l4 -35v-158c0 -35.333 -13 -63.333 -39 -84c-23.333 -18.667 -52.333 -28 -87 -28c-36 0 -65.667 9.83301 -89 29.5s-35 47.167 -35 82.5v158c0 46 22.667 91.667 68 137c-15.333 8 -42 12 -80 12h-101c-35.333 0 -65 -13.833 -89 -41.5
s-36 -59.5 -36 -95.5c21.333 21.333 45 32 71 32c29.333 0 53.166 -11.333 71.499 -34s27.5 -48.667 27.5 -78v-90c0 -33.333 -12.5 -60 -37.5 -80s-54.833 -30 -89.5 -30s-63.334 9.66699 -86.001 29c-24.667 20 -37 47 -37 81v147c0 60 19.333 111.167 58 153.5
s87.667 63.5 147 63.5h125l26 -3l16 -4l21 -7c21.333 -7.33301 38 -14.666 50 -21.999l40 23l40 13h125c20.667 0 41.667 -4.16699 63 -12.5s38 -16.166 50 -23.499c48 24 78.667 36 92 36h45c50.667 0 91 -24.667 121 -74c24.667 -41.333 37 -89 37 -143v-125
c0 -57.333 -22.667 -122 -68 -194h160zM736.002 101.996c0 -28 14.667 -42 44 -42c30.667 0 46 14 46 42v181c0 28 -14.667 42 -44 42c-30.667 0 -46 -14 -46 -42v-181zM100.002 190.996v-89c0 -29.333 14.667 -44 44 -44c12 0 22.5 4 31.5 12s13.5 18.667 13.5 32v89
c0 28 -15 42 -45 42c-29.333 0 -44 -14 -44 -42zM55.002 -115.004c0 -24 16 -46.667 48 -68c16 -7.33301 31.333 -12.333 46 -15l30 -5l34 -2h363c44.667 0 94.667 8 150 24c63.333 18 108.333 40 135 66h-806z" />
    <glyph glyph-name="bracketleft" unicode="[" horiz-adv-x="0" 
d="M-90 -372h-76v450h76v-450z" />
    <glyph glyph-name="backslash" unicode="\" horiz-adv-x="830" 
d="M62 402c6 17.333 13 31.8301 21 43.4971s16 19.167 24 22.5l22 10l19 3l14 1c11.333 0.666992 27 -3.66602 47 -12.999c9.33301 0 18.333 -10 27 -30c7.33301 -17.333 11 -31.666 11 -42.999c0 -35.333 -11 -59.666 -33 -72.999c-15.333 -9.33301 -31.333 -14 -48 -14
c-27.333 0 -50.333 9.33301 -69 28l-10 14l-6 15l2 7zM115 384.997l1 -10c0 -7.33301 7 -16 21 -26c12 -6 24.667 -9 38 -9c6.66699 0 11 0.666992 13 2c22 10 33 28.667 33 56c0 8 -4.5 16.833 -13.5 26.5s-20.167 14.5 -33.5 14.5c-12 0 -21.333 -1.66699 -28 -5
c-20.667 -4.66699 -31 -21 -31 -49zM126 255.997c-7.33301 -24.667 -16.001 -62.333 -26.001 -113c-2.66699 -20.667 -4 -38.334 -4 -53.001c0 -80 29.333 -151.167 88 -213.5s127.667 -93.5 207 -93.5c91.333 0 165 28.667 221 86c50.667 51.333 76 114 76 188
c0 29.333 -5.33301 55.666 -16 78.999c-14 29.333 -34 44 -60 44c-18 0 -34.333 -7.33301 -49 -22v-158h-81v420h-125v-420h-80v477h420v-57h-134v-205c20.667 16.667 44 25 70 25c44 0 78 -18.667 102 -56c20.667 -32 31 -71.333 31 -118
c0 -107.333 -36.333 -191.666 -109 -252.999c-68 -57.333 -156.667 -86 -266 -86c-103.333 0 -191.666 34.833 -264.999 104.5s-110 155.834 -110 258.501c0 70.667 24.667 158.667 74 264c-3.33301 -3.33301 -5 -6 -5 -8c0 -2.66699 3.33301 -4 10 -4
c3.33301 0 8.33301 0.333008 15 1s11.667 1 15 1c14.667 0 22 -4.33301 22 -13c0 3.33301 -7 -21.667 -21 -75z" />
    <glyph glyph-name="bracketright" unicode="]" horiz-adv-x="273" 
d="M-130 428v71h362v-71h-120v-448h-88v448h-154z" />
    <glyph glyph-name="asciicircum" unicode="^" horiz-adv-x="957" 
d="M574 135l-0.000976562 192.998c0 20 -6 39.667 -18 59c-14 22 -30.667 33 -50 33h-24c-15.333 0 -30.5 -9 -45.5 -27s-22.5 -35.667 -22.5 -53v-340h-78v307c0 22 -7.66699 45.667 -23 71c-17.333 28 -36.333 42 -57 42h-35c-29.333 0 -57.5 -13.5 -84.5 -40.5
s-40.5 -55.167 -40.5 -84.5c15.333 14 46 21 92 21c21.333 0 40 -11.333 56 -34s24 -45 24 -67v-102c0 -33.333 -13 -60.666 -39 -81.999c-23.333 -19.333 -52.333 -29 -87 -29c-35.333 0 -64.833 9.83301 -88.5 29.5s-35.5 46.834 -35.5 81.501v147
c0 57.333 19.667 107.833 59 151.5s87.333 65.5 144 65.5h47c35.333 0 69 -27 101 -81c10 20.667 27.667 39.334 53 56.001s49.333 25 72 25h35c35.333 0 65 -13.833 89 -41.5s36 -59.5 36 -95.5v-215c0 -16 7 -32.667 21 -50c14.667 -11.333 31.334 -17 50.001 -17
c22 0 42.167 7.5 60.5 22.5s27.5 33.167 27.5 54.5v181c0 30 -8.5 57.833 -25.5 83.5s-39.167 43.5 -66.5 53.5l35 47c42 -12.667 75.333 -35.5 100 -68.5s37 -71.5 37 -115.5v-170c0 -44.667 -17.333 -80.334 -52 -107.001c-32 -25.333 -70.667 -38 -116 -38
c-42 0 -77.667 12 -107 36s-44 56.667 -44 98zM142.999 56.998c11.333 0 21.667 4.66797 31 14.001s14 19.666 14 30.999v89c0 29.333 -15.333 44 -46 44s-46 -14.667 -46 -44v-89c0 -12 5 -22.5 15 -31.5s20.667 -13.5 32 -13.5z" />
    <glyph glyph-name="underscore" unicode="_" horiz-adv-x="299" 
d="M115 670c-5.33301 0 -15.667 -9 -31 -27c-9.33301 -17.333 -14 -35 -14 -53c0 -53.333 15 -80 45 -80c18 0 32.333 9.66699 43 29c8.66699 15.333 13 33 13 53c0 19.333 -4.33301 36.333 -13 51c-10.667 18 -25 27 -43 27zM228.999 590
c0 -83.333 -41.667 -125.003 -125 -125.003c-70.667 0 -106 35.667 -106 107l4 41c4 42.667 29.333 75.334 76 98.001c38 18 81 27 129 27c112.667 0 166 -52.667 160 -158l-2 -35c-1.33301 -25.333 -8 -48.666 -20 -69.999c-16 -29.333 -35.333 -55 -58 -77l-126 -121
c-44.667 -42.667 -67 -93.334 -67 -152.001c0 -13.333 7.83301 -30 23.5 -50s29.834 -30 42.501 -30h69l80 90v-57c-22 -52 -60 -78 -114 -78h-68c-10.667 0 -37.334 19 -80.001 57c-23.333 20.667 -35 54.334 -35 101.001c0 56.667 19.333 113.334 58 170.001
c10.667 15.333 45.667 48 105 98l100 84c16.667 20.667 25 42.667 25 66c0 24 -9.5 45.667 -28.5 65s-40.5 29 -64.5 29l16 -43c4 -10.667 6 -23 6 -37z" />
    <glyph glyph-name="grave" unicode="`" horiz-adv-x="380" 
d="M266 414h-125v-137h125v137zM-196 471h540v-250h-284v193h-256v57z" />
    <glyph glyph-name="a" unicode="a" horiz-adv-x="668" 
d="M94 78c4 -16.667 17.667 -25.001 41 -25.001c21.333 0 39.833 8.33301 55.5 25s25.167 35.667 28.5 57v342h80v-420l221 1v420l85 -1v-477h-386v66c-33.333 -44 -78.333 -66 -135 -66c-24 0 -41.333 3.83301 -52 11.5s-16 22.834 -16 45.501v420h78v-399z" />
    <glyph glyph-name="b" unicode="b" horiz-adv-x="691" 
d="M230 215c0 30 10 56.333 30 79s44.667 34 74 34h33c30.667 0 57.167 -11.167 79.5 -33.5s33.5 -48.833 33.5 -79.5v-80c0 -90 -60.333 -135 -181 -135c-188.667 0 -283 136 -283 408c0 95.333 27 173.333 81 234c56 64 131 96 225 96c87.333 0 158.333 -19.333 213 -58
c62.667 -44 94 -108 94 -192v-488h-80v488c0 58 -24 105.667 -72 143c-44 34 -95.667 51 -155 51c-64 0 -119 -30.333 -165 -91c-42 -56 -63 -117 -63 -183c0 -88 16 -165.333 48 -232c26 -54 63.333 -93.667 112 -119l-16 37l-6 29l-2 23v69zM402 227
c0 27.333 -15.333 41 -46 41c-30 0 -45 -13.667 -45 -41v-125c0 -29.333 15 -44 45 -44c30.667 0 46 14.667 46 44v125z" />
    <glyph glyph-name="c" unicode="c" horiz-adv-x="830" 
d="M777 0l-726.001 -0.000976562c-8 0 -15.333 2.83301 -22 8.5s-11 13.834 -13 24.501v33c0 24 7.66699 36 23 36c91.333 0 164.666 15.333 219.999 46c50 27.333 75 68.333 75 123v45c0 27.333 -13.833 51.5 -41.5 72.5s-55.5 31.5 -83.5 31.5
c11.333 -4 25 -16.333 41 -37l12 -28l4 -27v-33c0 -32 -14.167 -58.833 -42.5 -80.5s-59.166 -32.5 -92.499 -32.5s-60.333 8.33301 -81 25c-22.667 18 -34 43.333 -34 76v45c0 44.667 21.667 81.667 65 111c38.667 25.333 81.334 38 128.001 38h45
c45.333 0 83.333 -15.5 114 -46.5s46 -69.167 46 -114.5v-56c0 -101.333 -87.333 -169 -262 -203h625v-57zM140.999 237.999c7.33301 0 18.668 4 34.001 12c3.33301 2.66699 7.66602 9.66699 12.999 21v69c0 22.667 -15.333 34 -46 34s-46 -11.333 -46 -34v-69
c3.33301 -22 18.333 -33 45 -33z" />
    <glyph glyph-name="d" unicode="d" horiz-adv-x="934" 
d="M766 420l-0.00195312 -420.001h-78v420h-92c-30 0 -53 -8 -69 -24c38 -34 57 -75.667 57 -125v-158c0 -34 -12.167 -60.833 -36.5 -80.5s-54.166 -29.5 -89.499 -29.5c-31.333 0 -59.833 9.16699 -85.5 27.5s-38.5 45.833 -38.5 82.5v158c0 38 22.667 79.667 68 125
c-22 16 -51.667 24 -89 24h-92c-34.667 0 -64.167 -14.167 -88.5 -42.5s-36.5 -59.833 -36.5 -94.5c20.667 20.667 45 31 73 31c26 0 48.667 -10 68 -30s29 -43 29 -69v-102c0 -34 -12.167 -60.833 -36.5 -80.5s-54.166 -29.5 -89.499 -29.5
c-31.333 0 -59.833 9.16699 -85.5 27.5s-38.5 45.833 -38.5 82.5v147c0 52.667 21.167 102 63.5 148s89.5 69 141.5 69h113l29 -3l20 -4l21 -7c16 -5.33301 34.333 -12.666 55 -21.999l40 23l40 13h363v-57h-136zM503.998 282.999c0 29.333 -14.333 44 -43 44
c-12.667 0 -23.667 -4.16699 -33 -12.5s-14 -18.833 -14 -31.5v-181c0 -29.333 15.333 -44 46 -44c29.333 0 44 14.667 44 44v181zM140.998 237.999c-9.33301 0 -19.167 -5.5 -29.5 -16.5s-15.5 -21.167 -15.5 -30.5v-89c0 -29.333 15 -44 45 -44c31.333 0 47 14.667 47 44
v89c-16 31.333 -31.667 47 -47 47z" />
    <glyph glyph-name="e" unicode="e" horiz-adv-x="564" 
d="M434 477v-57h-137v-217c21.333 21.333 48.333 32 81 32c34.667 0 64 -11.667 88 -35s36 -52.333 36 -87v-113c0 -83.333 -64.333 -125 -193 -125h-205c-46 0 -69 -15.667 -69 -47v-90h-66v90c0 69.333 41.667 104 125 104h226c27.333 0 53 8 77 24
c16.667 14.667 25 32.667 25 54v92c0 51.333 -18.667 77 -56 77c-26.667 0 -49.667 -14.667 -69 -44v-135h-78v420h-125v-420h-80v477h420z" />
    <glyph glyph-name="f" unicode="f" horiz-adv-x="659" 
d="M209 57l15 -1h15c16 0 30.333 5 43 15c23.333 18 36.666 39.333 39.999 64v103l-189 -7c-11.333 -0.666992 -17.666 -1 -18.999 -1c-4.66699 -2 -7.66699 -7 -9 -15v-90c0 -12 11 -27.667 33 -47c19.333 -12 43 -19 71 -21zM197 420v-125h125v125h-125zM527 135v47.002
c0 37.333 -22.667 56 -68 56h-57v-92c0 -97.333 -68.333 -146 -205 -146c-46 0 -86.333 10.667 -121 32c-40 25.333 -60 59.666 -60 102.999v92c0 11.333 6 26.666 18 45.999l18 16c6 4 12.667 6 20 6h45v182h420v-57h-135v-125h67c90.667 0 136 -34.667 136 -104v-66
c0 -35.333 -14 -66 -42 -92c-32 -30 -68.333 -43.333 -109 -40l-36 3l29 61l12 -2c14 0 29.667 9 47 27c14 18 21 35.667 21 53z" />
    <glyph glyph-name="g" unicode="g" horiz-adv-x="541" 
d="M105 477v-420h295v420h80v-477h-455v477h80z" />
    <glyph glyph-name="h" unicode="h" horiz-adv-x="461" 
d="M297 420v-420h-78v420h-125v-420h-80v477h420v-57h-137z" />
    <glyph glyph-name="i" unicode="i" horiz-adv-x="854" 
d="M629 45c22 14.667 40.832 34.999 56.499 60.999s23.5 51.333 23.5 76v89c0 26 -10.333 56.667 -31 92c-23.333 38 -47 57 -71 57h-11c-30 0 -53 -4 -69 -12c8.66699 -8.66699 22.334 -29.667 41.001 -63l12 -38l4 -36v-158c0 -35.333 -13 -63.333 -39 -84
c-23.333 -18.667 -52.333 -28 -87 -28c-36 0 -65.667 9.83301 -89 29.5s-35 47.167 -35 82.5v158c0 46 22.667 91.667 68 137c-15.333 8 -42 12 -80 12h-90c-34.667 0 -66 -12.167 -94 -36.5s-42 -53.833 -42 -88.5c16 16 36.667 24 62 24c28 0 53 -10.5 75 -31.5
s33 -45.167 33 -72.5v-102c0 -25.333 -14.5 -50.5 -43.5 -75.5s-56.167 -37.5 -81.5 -37.5c-35.333 0 -65 10.333 -89 31s-36 48 -36 82v147c0 52.667 21 102 63 148s89.333 69 142 69h125l26 -3l16 -4l21 -7c21.333 -7.33301 38 -14.666 50 -21.999l40 23l40 13h33
c144.667 0 217 -72.333 217 -217v-69l-1 -27c0 -8.66699 -2.33301 -20.667 -7 -36c-2 -12.667 -9 -30.667 -21 -54c-18 -36 -42 -60.667 -72 -74c-12.667 0 -25.667 4.5 -39 13.5s-20 19.5 -20 31.5zM413.999 282.999v-181c0 -12 4.5 -22.167 13.5 -30.5
s19.5 -12.5 31.5 -12.5c30 0 45 14.333 45 43v181c0 28 -14.667 42 -44 42c-30.667 0 -46 -14 -46 -42zM140.999 56.999c9.33301 0 19.499 5.16797 30.499 15.501s16.5 20.166 16.5 29.499v89c0 29.333 -15.667 44 -47 44c-11.333 0 -21.666 -4.5 -30.999 -13.5
s-14 -19.167 -14 -30.5v-89c0 -10 5.33301 -20.333 16 -31c5.33301 -4 15 -8.66699 29 -14z" />
    <glyph glyph-name="j" unicode="j" 
d="M105 -172l0.000976562 -89.998h-78v90c0 69.333 45 104 135 104h217c34 0 67.167 14 99.5 42s48.5 58.667 48.5 92v104c0 45.333 -22.667 68 -68 68h-57v-92c0 -97.333 -68.333 -146 -205 -146c-46 0 -86.333 10.667 -121 32c-40 25.333 -60 59.666 -60 102.999v92
c0 11.333 6 26.666 18 45.999l18 16c6 4 12.667 6 20 6h45v182h420v-57h-135v-125h67c38 0 69 -7.66699 93 -23c28.667 -18.667 43 -45.667 43 -81v-113c0 -62.667 -26.333 -113.667 -79 -153c-44.667 -33.333 -93.667 -50 -147 -50h-217
c-14.667 0 -27.834 -4.33301 -39.501 -13s-17.5 -20 -17.5 -34zM197.001 295.002h125v125h-125v-125zM322.001 135.002v103h-193c-16 0 -24 -7.66699 -24 -23v-90c0 -12 11 -27.667 33 -47c22 -14 45.667 -21 71 -21c24 0 48 6.66699 72 20c27.333 16 41 35.333 41 58z" />
    <glyph glyph-name="k" unicode="k" horiz-adv-x="633" 
d="M457 57c23.333 0 35 18.667 35 56v203c0 69.333 -22.667 104 -68 104c-13.333 0 -28 -7 -44 -21c-8.66699 -10.667 -13 -22.667 -13 -36v-306h90zM287 385c0 25.333 11.833 47 35.5 65s57.5 27 101.5 27c97.333 0 146 -53.667 146 -161v-226c0 -60 -26 -90 -78 -90h-478
v477h80v-420h193v328z" />
    <glyph glyph-name="l" unicode="l" 
d="M14 0v477h80v-420h488v-57h-568z" />
    <glyph glyph-name="m" unicode="m" horiz-adv-x="945" 
d="M801 66l0.00195312 411.002h80v-739h-80v272h-113c-24 -56 -67.833 -102.333 -131.5 -139s-130.167 -55 -199.5 -55h-56c-64 0 -122.667 13 -176 39c-64.667 32 -100.334 76.333 -107.001 133v22c0 37.333 29.667 56 89 56h516l6 32l2 27v33
c0 71.333 -17.333 134.666 -52 189.999c-30 48 -58.333 72 -85 72c10.667 -10.667 19.667 -25.334 27 -44.001l8 -36v-69c0 -30 -13.333 -55.333 -40 -76c-30 -16.667 -59 -25 -87 -25c-34.667 0 -63 8 -85 24c-25.333 18 -38 43.667 -38 77v81
c0 34.667 13.667 64.167 41 88.5s58.666 36.5 93.999 36.5h57c76 0 136.667 -33 182 -99c38.667 -56 58 -125.333 58 -208v-57c0 -10 -2 -25.667 -6 -47h96zM449.002 260.002v115c0 27.333 -15.333 41 -46 41s-46 -13.667 -46 -41v-115c0 -21.333 14.667 -32 44 -32
c32 0 48 10.667 48 32zM357.002 -124.998c49.333 0 96.332 12 140.999 36s78.667 57 102 99h-504v-22c0 -35.333 26.667 -64.333 80 -87c42.667 -17.333 84.334 -26 125.001 -26h56z" />
    <glyph glyph-name="n" unicode="n" horiz-adv-x="854" 
d="M402 420c24 -24 35.998 -50.666 35.998 -79.999v-80c0 -26 -14 -49.667 -42 -71c-27.333 -12.667 -55 -19 -83 -19c-31.333 0 -60.666 8 -87.999 24c-24.667 18.667 -37 44.334 -37 77.001v81c0 35.333 13.333 65 40 89s58 36 94 36h57c63.333 0 114.333 -26.667 153 -80
c34.667 -47.333 52 -104 52 -170v-57c0 -11.333 -7 -46 -21 -104c67.333 -36 101 -77.667 101 -125v-66c0 -39.333 -17.333 -72.333 -52 -99c-32 -25.333 -68 -38 -108 -38h-90c-23.333 0 -65 15 -125 45c-58 -30 -99.667 -45 -125 -45h-92c-25.333 0 -46.666 9 -63.999 27
s-26 39 -26 63v47c0 42 30 87 90 135c-37.333 80.667 -56 160.667 -56 240v146c0 85.333 31.333 163 94 233c65.333 72.667 140 109 224 109h125c82.667 0 157.334 -26.333 224.001 -79c70.667 -56 106 -124.667 106 -206v-453h-80v453
c0 71.333 -30.333 128.666 -91 171.999c-53.333 38 -117.333 57 -192 57h-69c-70.667 0 -132.667 -32.333 -186 -97c-50 -60.667 -75 -127.334 -75 -200.001v-135c0 -72.667 15 -141 45 -205c18.667 14 45.667 26.333 81 37l51 15c11.333 3.33301 24.666 5 39.999 5h101
c25.333 0 52 -8 80 -24l7 41l3 51v45c0 59.333 -9.66699 105.333 -29 138c-18 38 -42.333 60.333 -73 67zM538.998 10.001c-37.333 -65.333 -101.667 -133.001 -193 -203.001c25.333 -8 52 -12 80 -12h45c24.667 0 49 7 73 21c26.667 16 40 35.667 40 59v45l-3 25
c-1.33301 6.66699 -5 15.334 -11 26.001c-10 18.667 -20.333 31.667 -31 39zM470.997 33c-44 8 -70.668 11.999 -80.001 11.999h-78c-35.333 0 -85 -15 -149 -45c35.333 -69.333 77 -122.666 125 -159.999c30.667 18 63.334 45.667 98.001 83l31 33l17 23
c14.667 19.333 26.667 37.333 36 54zM265.996 259.999c0 -22.667 15.667 -34 47 -34c29.333 0 44 11.333 44 34v115c0 27.333 -15 41 -45 41c-30.667 0 -46 -13.667 -46 -41v-115zM106.996 -47.001c-29.333 -32.667 -44 -58.667 -44 -78c0 -23.333 4 -44 12 -62
c5.33301 -12 12.333 -18 21 -18h45c4.66699 0 17.5 5.16699 38.5 15.5s34.833 16.166 41.5 17.499c-52.667 46.667 -90.667 88.334 -114 125.001z" />
    <glyph glyph-name="o" unicode="o" 
d="M340 88l60.001 149.999l3 12c0 12.667 -4.83301 23.334 -14.5 32.001s-20.834 13 -33.501 13h-23c-15.333 0 -30.5 -8 -45.5 -24s-22.5 -30.667 -22.5 -44v-24c0 -40 25.333 -78.333 76 -115zM492.001 249.999v-35l-68 -158h158v-57h-193l-114 -262h-89l113 262h-285v477
h80v-420h205c-75.333 43.333 -113 92 -113 146v24c0 33.333 16.333 63 49 89c30 24 62.333 36 97 36h35c29.333 0 57.5 -10 84.5 -30s40.5 -44 40.5 -72z" />
    <glyph glyph-name="p" unicode="p" horiz-adv-x="150" 
d="M-271 496c-22 29.333 -31.666 61.332 -28.999 95.999l2 27l2 15c6 47.333 28.167 81 66.5 101s73.166 29 104.499 27l31 -2c52.667 -3.33301 92.667 -23.333 120 -60c21.333 -28.667 34 -54.667 38 -78v-612h-69v583c0 34.667 -18.667 64 -56 88l-29 11l-31 4h-20l-22 -6
c-15.333 -2 -30 -14 -44 -36s-21 -41 -21 -57c0 -27.333 13.667 -53.666 41 -78.999l39 -1v-67h-60c-22 4 -43 19.333 -63 46z" />
    <glyph glyph-name="q" unicode="q" horiz-adv-x="922" 
d="M664 182l0.000976562 -182.003h-78v420h-182c-32 0 -60.833 -12.833 -86.5 -38.5s-38.5 -54.5 -38.5 -86.5c18.667 16.667 38.667 25 60 25c28.667 0 54.167 -10.5 76.5 -31.5s33.5 -45.5 33.5 -73.5v-102c0 -33.333 -13 -60.666 -39 -81.999
c-23.333 -19.333 -52.333 -29 -87 -29c-35.333 0 -64.833 9.83301 -88.5 29.5s-35.5 46.834 -35.5 81.501v147c0 57.333 19.833 107.833 59.5 151.5s88.167 65.5 145.5 65.5h397v-57h-137v-160c22 10 42.333 15 61 15c40 0 72.667 -19.667 98 -59c22.667 -34 34 -72 34 -114
c0 -121.333 -40.667 -212 -122 -272c-72 -53.333 -171 -80 -297 -80c-117.333 0 -217.333 41.667 -300 125c-35.333 36 -65 75.667 -89 119c-2 4.66699 -5.33301 13.667 -10 27l-13 36l-6 32l-2 36l-1 39c-2 88 28 180.333 90 277l36 -45c-47.333 -85.333 -71 -165 -71 -239
c0 -93.333 38.667 -173.666 116 -240.999c66 -57.333 149.333 -93.666 250 -108.999c51.333 0 105 9.33301 161 28c79.333 26.667 133.666 72.667 162.999 138c12.667 29.333 19 67.666 19 114.999v46l-2 12c0 16 -7 30 -21 42s-29 18 -45 18c-14.667 0 -31 -8 -49 -24z
M324.001 237.997c-9.33301 0 -19.167 -5.5 -29.5 -16.5s-15.5 -21.167 -15.5 -30.5v-89c0 -29.333 15 -44 45 -44s45 14.667 45 44v89c0 12 -4.5 22.833 -13.5 32.5s-19.5 14.5 -31.5 14.5z" />
    <glyph glyph-name="r" unicode="r" horiz-adv-x="576" 
d="M525 238l-125 0.00195312v-92c0 -97.333 -68.333 -146 -205 -146c-46 0 -86.333 10.667 -121 32c-40 25.333 -60 59.666 -60 102.999v92c0 11.333 6 26.666 18 45.999l18 16c6 4 12.667 6 20 6h47v182h420v-57h-137v-125h125v-57zM195 295.002h125v125h-125v-125z
M105 215.002v-90c0 -11.333 11 -27 33 -47c22 -14 45 -21 69 -21s48 6.66699 72 20c27.333 16 41 35.333 41 58v103h-193c-14.667 0 -22 -7.66699 -22 -23z" />
    <glyph glyph-name="s" unicode="s" horiz-adv-x="807" 
d="M389 420c26 38 61.001 57 105.001 57h283v-57h-136v-420h-78v420h-59c-19.333 0 -35.166 -6.5 -47.499 -19.5s-18.5 -29.167 -18.5 -48.5v-352h-81v328c0 18.667 -6.66699 38 -20 58c-14.667 22.667 -30.667 34 -48 34h-68c-37.333 0 -67.5 -13.333 -90.5 -40
s-34.5 -59 -34.5 -97c20.667 20.667 45 31 73 31c26 0 48.667 -10 68 -30s29 -43 29 -69v-102c0 -33.333 -12.5 -60 -37.5 -80s-54.833 -30 -89.5 -30s-63.334 9.66699 -86.001 29c-24.667 20 -37 47 -37 81v147c0 54 20.833 103.667 62.5 149s89.167 68 142.5 68h56
c41.333 0 78.666 -19 111.999 -57zM141.001 238c-9.33301 0 -19.168 -5.49902 -29.501 -16.499s-15.5 -21.167 -15.5 -30.5v-89c0 -29.333 15 -44 45 -44c31.333 0 47 14.667 47 44v89c0 7.33301 -5 17.666 -15 30.999l-13 10c-5.33301 4 -11.666 6 -18.999 6z" />
    <glyph glyph-name="t" unicode="t" horiz-adv-x="783" 
d="M188 102l0.000976562 88.999c0 14.667 -4.33301 25.834 -13 33.501s-19.334 11.5 -32.001 11.5c-31.333 0 -47 -15 -47 -45v-89c0 -29.333 15 -44 45 -44c31.333 0 47 14.667 47 44zM322.001 65.999c20 12.667 38.666 38.665 55.999 77.998c16 36.667 24 68 24 94
c0 44.667 -9.33301 84.334 -28 119.001c-23.333 42 -55.666 63 -96.999 63h-56c-32 0 -60.833 -12.833 -86.5 -38.5s-38.5 -54.5 -38.5 -86.5c16 16 36.333 24 61 24c28 0 53.167 -10.333 75.5 -31s33.5 -45 33.5 -73v-102c0 -26 -14.333 -51.333 -43 -76s-56 -37 -82 -37
c-35.333 0 -65 10.333 -89 31s-36 48 -36 82v147c0 56 20.333 106.167 61 150.5s88.667 66.5 144 66.5h68c63.333 0 112.333 -25 147 -75c30.667 -43.333 46 -98 46 -164c0 -67.333 -26.667 -127.666 -80 -180.999h239v420h80v-477h-399v66z" />
    <glyph glyph-name="u" unicode="u" horiz-adv-x="461" 
d="M14 0v477h420v-57h-137v-420l-125 -137l-45 45l92 102v410h-125v-420h-80z" />
    <glyph glyph-name="v" unicode="v" horiz-adv-x="646" 
d="M480 0h-78.001v420h-160c-44.667 0 -82 -15.333 -112 -46c-24 -24.667 -36 -51 -36 -79c16 16 36.333 24 61 24c28.667 0 54.334 -10.167 77.001 -30.5s34 -44.833 34 -73.5v-102c0 -26 -14.333 -51.333 -43 -76s-56 -37 -82 -37c-35.333 -0 -65 10.333 -89 31
s-36 48 -36 82v147c0 57.333 19.667 107.833 59 151.5s87.333 65.5 144 65.5h398v-57h-137v-420zM93.999 102c0 -29.333 15.333 -44 46 -44s46 14.667 46 44v89c0 29.333 -15.333 44 -46 44s-46 -14.667 -46 -44v-89z" />
    <glyph glyph-name="w" unicode="w" horiz-adv-x="600" 
d="M117 -125c-14.667 0 -27.667 -4.33301 -39 -13s-17 -20 -17 -34v-90h-81v90c0 34.667 14.667 61.334 44 80.001c25.333 16 56.333 24 93 24h215c83.333 0 125 56.667 125 170v214c0 22 -7.33301 44 -22 66c-16.667 25.333 -36 38 -58 38c-17.333 0 -36 -10 -56 -30
c-14.667 -20.667 -22 -45.334 -22 -74.001v-316h-80v340c0 16.667 -5.66699 34.167 -17 52.5s-24.666 27.5 -39.999 27.5c-14.667 0 -29.667 -7.83301 -45 -23.5s-23 -30.5 -23 -44.5v-352h-80v352c0 29.333 14 58.666 42 87.999c29.333 24.667 60.666 37 93.999 37
c26 0 51.333 -7.66699 76 -23s41 -34.666 49 -57.999c20 54 58 81 114 81c44 0 79.667 -15.667 107 -47s41 -69.333 41 -114v-238c0 -135.333 -72.333 -203 -217 -203h-203z" />
    <glyph glyph-name="x" unicode="x" horiz-adv-x="727" 
d="M117 -148l-0.00390625 68l80 -45l-2 -17c0 -42 27.333 -63 82 -63h22c45.333 0 76 22.667 92 68c0 34.667 15 60.667 45 78c-21.333 6 -46 22.333 -74 49c-13.333 15.333 -23.333 31 -30 47l-7 24l-3 29v23c0 28.667 13 60 39 94c22 28.667 43 43 63 43h56
c24.667 0 38.667 -0.333008 42 -1s5 -4.33398 5 -11.001v-11c-5.33301 0 -16 -8.33301 -32 -25c-10 -16 -15 -30.667 -15 -44v-23c0 -6.66699 6 -19 18 -37c8.66699 -9.33301 18.334 -16 29.001 -20h10c14.667 0 26.667 12.333 36 37c7.33301 19.333 11 37.666 11 54.999v33
c0 67.333 -25.667 122 -77 164c-43.333 35.333 -97.666 53 -162.999 53h-57c-56 0 -103.667 -15.333 -143 -46c-33.333 -26 -50 -52.333 -50 -79c16 16 36.333 24 61 24c28.667 0 54.334 -10.167 77.001 -30.5s34 -44.833 34 -73.5v-102c0 -33.333 -13 -60.666 -39 -81.999
c-23.333 -19.333 -52.333 -29 -87 -29c-35.333 0 -64.833 9.83301 -88.5 29.5s-35.5 46.834 -35.5 81.501v158c0 53.333 30.667 102 92 146c57.333 40 113.666 60 168.999 60h90c83.333 0 155 -26 215 -78c53.333 -46 80 -103.333 80 -172v-81
c0 -31.333 -11.167 -60 -33.5 -86s-48.833 -39 -79.5 -39h-33c-24 0 -46.667 14 -68 42c-17.333 28.667 -26 59 -26 91c0 16.667 0.666992 26 2 28c-30 -34 -45 -64.667 -45 -92c0 -31.333 13 -60 39 -86s54.667 -39 86 -39h125v-57h-92
c-17.333 0 -34.666 -7.16699 -51.999 -21.5s-26 -29.833 -26 -46.5v-24c0 -17.333 -13 -36 -39 -56c-13.333 -7.33301 -27.666 -12.333 -42.999 -15l-26 -5l-29 -2h-56c-36 0 -69 9.66699 -99 29c-33.333 22.667 -50 51 -50 85zM93.9961 191v-89
c0 -29.333 15.333 -44 46 -44s46 14.667 46 44v89c0 30 -15.667 45 -47 45c-7.33301 0 -18 -4 -32 -12c-8.66699 -8.66699 -13 -19.667 -13 -33z" />
    <glyph glyph-name="y" unicode="y" horiz-adv-x="715" 
d="M492 0c-46 0 -82.999 10.666 -110.999 31.999c-31.333 24 -47 58.333 -47 103v181c0 21.333 -8 43.333 -24 66c-16.667 25.333 -35.334 38 -56.001 38h-35c-35.333 0 -65 -14 -89 -42s-36 -59.667 -36 -95c20 21.333 45 32 75 32c14.667 0 25.667 -1.66699 33 -5l19 -9
l15 -12c20 -19.333 30 -44 30 -74v-102c0 -26 -14.333 -51.333 -43 -76s-56 -37 -82 -37c-35.333 0 -65 10.333 -89 31s-36 48 -36 82v147c0 52 20.833 101.167 62.5 147.5s88.5 69.5 140.5 69.5h47c44.667 0 80.667 -16 108 -48c25.333 -30 38 -67.667 38 -113v-181
c0 -19.333 8 -38 24 -56c16.667 -13.333 35.667 -20 57 -20c22.667 0 41.5 7 56.5 21s22.5 32.333 22.5 55v181c0 30 -8.5 57.833 -25.5 83.5s-39.167 43.5 -66.5 53.5l36 47c41.333 -12.667 74.333 -35.667 99 -69s37 -71.666 37 -114.999v-170
c0 -42 -16 -76.833 -48 -104.5s-69.333 -41.5 -112 -41.5zM94.001 190.999v-89c0 -12 4.5 -22.167 13.5 -30.5s19.833 -12.5 32.5 -12.5s23.5 4 32.5 12s13.5 18.333 13.5 31v89c0 29.333 -15.333 44 -46 44s-46 -14.667 -46 -44z" />
    <glyph glyph-name="z" unicode="z" horiz-adv-x="1256" 
d="M598 420c-25.333 0 -47.6699 -4.00098 -67.0029 -12.001c10.667 -10.667 24.334 -32 41.001 -64c7.33301 -17.333 11.333 -30 12 -38l4 -35v-158c0 -35.333 -13 -63.333 -39 -84c-23.333 -18.667 -52.333 -28 -87 -28c-36 0 -65.667 9.83301 -89 29.5
s-35 47.167 -35 82.5v158c0 48 22.667 93.667 68 137c-15.333 8 -42 12 -80 12h-103c-35.333 0 -65 -14 -89 -42s-36 -59.667 -36 -95c20.667 20.667 44.334 31 71.001 31c28.667 0 52.667 -11.167 72 -33.5s29 -48.166 29 -77.499v-90c0 -33.333 -12.5 -60 -37.5 -80
s-54.833 -30 -89.5 -30s-63.334 9.66699 -86.001 29c-24.667 20 -37 47 -37 81v147c0 57.333 19.667 107.833 59 151.5s87.333 65.5 144 65.5h125l29 -3l16 -4l20 -7c22.667 -8 39.334 -15.333 50.001 -22c42 24 68 36 78 36h125l29 -3l16 -4l20 -7
c22.667 -8 39.334 -15.333 50.001 -22c44 24 74 36 90 36h352v-57h-135v-420h-80v420h-92c-25.333 0 -48 -4 -68 -12c20.667 -19.333 34.667 -40.333 42 -63l12 -38l4 -36v-158c0 -30.667 -12.333 -58.334 -37 -83.001c-24 -20 -53.667 -30 -89 -30s-64.333 10 -87 30
c-24.667 20.667 -37 48.334 -37 83.001v158c0 46 22.333 91.667 67 137c-14 8 -40 12 -78 12h-47zM825.996 282.999c0 27.333 -15 41 -45 41c-31.333 0 -47 -13.667 -47 -41v-181c0 -28 15 -42 45 -42c31.333 0 47 14 47 42v181zM188.996 101.999v89c0 28.667 -15 43 -45 43
c-30.667 0 -46 -14.333 -46 -43v-89c0 -12 4.5 -22.167 13.5 -30.5s19.833 -12.5 32.5 -12.5c12 0 22.5 4 31.5 12s13.5 18.333 13.5 31zM507.996 101.999v181c0 28 -15 42 -45 42c-31.333 0 -47 -14 -47 -42v-181c0 -28 15 -42 45 -42c31.333 0 47 14 47 42z" />
    <glyph glyph-name="braceleft" unicode="{" horiz-adv-x="130" 
d="M-410 -220c15.333 2 28 9 38 21c7.33301 10.667 11 21.667 11 33l-1 11c-0.666992 9.33301 -6.66699 19.333 -18 30c-11.333 8 -22 13 -32 15c-14 0 -27.333 -3.66699 -40 -11s-20.667 -17.333 -24 -30l-2 -15c0 -16 5.83301 -29.167 17.5 -39.5s25.5 -15.5 41.5 -15.5z
M-330 -240c-18.667 -21.333 -45.333 -32.002 -80 -32.002c-18 0 -30 1.33301 -36 4c-8.66699 0.666992 -15.667 3.66699 -21 9c2 -20.667 13 -40.667 33 -60l27 -26l29 -25c43.333 -30 93 -45 149 -45c87.333 0 166 39.667 236 119c34 38.667 51 92.334 51 161.001
c0 74.667 -17.333 133.334 -52 176.001c-17.333 20.667 -36.333 31 -57 31l-20 -3v-241h-78v450h78v-131c4 2 9.66699 3 17 3l25 -3c7.33301 -0.666992 17.166 -3.5 29.499 -8.5s22.833 -11.167 31.5 -18.5c36.667 -23.333 64.334 -60.333 83.001 -111
c8 -20.667 13 -39.667 15 -57l4 -32l1 -39v-41l-2 -11c0 -18.667 -7.66699 -53 -23 -103c-13.333 -44 -40.166 -84.833 -80.499 -122.5s-83.5 -64 -129.5 -79s-83 -22.5 -111 -22.5c-43.333 0 -86.333 6.66699 -129 20c-48.667 15.333 -86.667 36.666 -114 63.999
c-8 6 -18.333 16.333 -31 31c-20.667 20.667 -38.334 51.667 -53.001 93l-12 47l-4 43c0 30 3.66699 51.333 11 64l16 27c13.333 22.667 35.333 40 66 52c24 5.33301 43 7.66602 57 6.99902l17 -1l23 -7c18 -5.33301 33 -14.666 45 -27.999l10 -16l9 -25l4 -31
c0 -29.333 -11.333 -56.666 -34 -81.999z" />
    <glyph glyph-name="bar" unicode="|" horiz-adv-x="818" 
d="M562 382c6 17.333 13 31.8301 21 43.4971s16 19.167 24 22.5l22 10l19 3l14 1c11.333 0.666992 27 -3.66602 47 -12.999c9.33301 0 18.333 -10 27 -30c7.33301 -17.333 11 -31.666 11 -42.999c0 -35.333 -11 -59.666 -33 -72.999c-15.333 -9.33301 -31.333 -14 -48 -14
c-27.333 0 -50.333 9.33301 -69 28l-10 14l-6 15l2 7zM615 364.997l1 -10c0 -7.33301 7 -16 21 -26c12 -6 24.667 -9 38 -9c6.66699 0 11 0.666992 13 2c22 10 33 28.667 33 56c0 8 -4.5 16.833 -13.5 26.5s-20.167 14.5 -33.5 14.5c-12 0 -21.333 -1.66699 -28 -5
c-20.667 -4.66699 -31 -21 -31 -49zM678 401.997c-3.33301 1.33301 -12.333 23.999 -27 67.999c-16.667 48 -31.667 78.667 -45 92c-48.667 48.667 -108.667 73 -180 73h-57c-77.333 0 -143.666 -40.667 -198.999 -122c-49.333 -72.667 -74 -149.334 -74 -230.001v-92
c0 -67.333 15 -131.666 45 -192.999c37.333 -75.333 86.666 -113 147.999 -113h57c44 0 85.167 19.167 123.5 57.5s57.5 79.5 57.5 123.5v59c0 26 -6.33301 51.333 -19 76c-4 11.333 -10 20.333 -18 27c-4.66699 6.66699 -11 10 -19 10h-24l-10 -1l-20 -7
c-6 -2 -14.667 -7 -26 -15v-215h-78v477h78v-217c6 6 15.667 13.333 29 22l27 13h35c32.667 0 60.667 -15 84 -45c27.333 -35.333 41 -84.666 41 -147.999v-36c0 -67.333 -26.5 -123.833 -79.5 -169.5s-113.5 -68.5 -181.5 -68.5h-57c-79.333 0 -146.333 42 -201 126
c-48 74 -72 153 -72 237v104c0 108.667 31.333 200.667 94 276c66 80 152.333 120 259 120h57c86.667 0 163 -28.333 229 -85c22 -18.667 43.333 -48 64 -88s31 -73.667 31 -101c0 -20 -7 -30 -21 -30c-4 0 -9 1 -15 3z" />
    <glyph glyph-name="braceright" unicode="}" horiz-adv-x="887" 
d="M176 396c-20 -20 -38.333 -50.166 -55 -90.499s-25 -74.5 -25 -102.5v-215c0 -62.667 26.333 -115.334 79 -158.001c49.333 -39.333 106.333 -59 171 -59c68 0 119.333 21.667 154 65c30 38 43.667 81.667 41 131l-2 33h-273v477h80v-420h193v328
c0 25.333 11.833 47 35.5 65s57.5 27 101.5 27c97.333 0 146 -53.667 146 -161v-226c0 -60 -26 -90 -78 -90h-125l1 -32c5.33301 -176.667 -86 -265 -274 -265c-85.333 0 -161 27.667 -227 83c-68.667 58.667 -103 130 -103 214v191c0 40 12.333 86.667 37 140
c26 57.333 55.333 94 88 110zM744 113.001v203c0 69.333 -22.667 104 -68 104c-13.333 0 -28 -7 -44 -21c-8.66699 -10.667 -13 -22.667 -13 -36v-306h90c23.333 0 35 18.667 35 56zM72 422.001c6 17.333 13 31.8301 21 43.4971s16 19.167 24 22.5l22 10l19 3l14 1
c11.333 0.666992 27 -3.66602 47 -12.999c9.33301 0 18.333 -10 27 -30c7.33301 -17.333 11 -31.666 11 -42.999c0 -35.333 -11 -59.666 -33 -72.999c-15.333 -9.33301 -31.333 -14 -48 -14c-27.333 0 -50.333 9.33301 -69 28l-10 14l-6 15l2 7zM125 404.998l1 -10
c0 -7.33301 7 -16 21 -26c12 -6 24.667 -9 38 -9c6.66699 0 11 0.666992 13 2c22 10 33 28.667 33 56c0 8 -4.5 16.833 -13.5 26.5s-20.167 14.5 -33.5 14.5c-12 0 -21.333 -1.66699 -28 -5c-20.667 -4.66699 -31 -21 -31 -49z" />
    <glyph glyph-name="asciitilde" unicode="~" horiz-adv-x="605" 
d="M6 186c54 -83.333 129.332 -125 225.999 -125c105.333 0 178.333 23.667 219 71c6.66699 7.33301 17.334 27.333 32.001 60l8 38l3 48v125c0 52.667 -17 101 -51 145c-36 48 -79.667 72 -131 72c-44 0 -81.667 -14.167 -113 -42.5s-47 -64.166 -47 -107.499h205v-250
h-283v193h-268v57h268c0 70 24.667 124.333 74 163c45.333 35.333 104 53 176 53c71.333 0 130.833 -25.333 178.5 -76s71.5 -111.667 71.5 -183v-137c0 -196.667 -114 -295 -342 -295c-46 0 -95.333 16.333 -148 49c-49.333 31.333 -87 67.666 -113 108.999zM276.999 276
v137h-125v-137h125z" />
    <glyph glyph-name="Eacute" unicode="&#xc9;" horiz-adv-x="1129" 
d="M996 90c0 18.667 -6.66699 39.332 -20 61.999c-14.667 26 -30.667 39 -48 39h-22l-29 -6c-6.66699 -2 -16.334 -7 -29.001 -15v-170h-78v420h-57c-20 0 -36.333 -6.33301 -49 -19s-19 -29 -19 -49v-352h-81v328c0 18.667 -6.66699 38 -20 58
c-14.667 22.667 -30.667 34 -48 34h-68c-37.333 0 -67.5 -13.333 -90.5 -40s-34.5 -59 -34.5 -97c20.667 20.667 45 31 73 31c26 0 48.667 -10 68 -30s29 -43 29 -69v-102c0 -34 -12.167 -60.833 -36.5 -80.5s-54.166 -29.5 -89.499 -29.5s-64.333 9.33301 -87 28
c-24.667 20 -37 47.333 -37 82v147c0 54 20.833 103.667 62.5 149s89.167 68 142.5 68h56c41.333 0 78.666 -19 111.999 -57c26 38 61 57 105 57h283v-57h-136v-182l39 16c10 4 19.667 6 29 6h12c42.667 0 77.667 -13.667 105 -41c13.333 -10 23.833 -25.5 31.5 -46.5
s11.5 -40.833 11.5 -59.5v-47c0 -130.667 -53.333 -227 -160 -289c-85.333 -49.333 -198.666 -74 -339.999 -74h-80c-70 0 -142 18.667 -216 56s-133 84 -177 140c-55.333 70 -83 145.333 -83 226v45c0 47.333 9.33301 99 28 155c8 23.333 12.667 36.333 14 39
c6.66699 8.66699 14 19.334 22 32.001l48 -30c-7.33301 -11.333 -11.333 -25 -12 -41c-0.666992 -4 -2.33398 -11.333 -5.00098 -22c-11.333 -44.667 -17 -93 -17 -145v-45c0 -80.667 44.333 -160.334 133 -239.001c86.667 -76 171 -114 253 -114h80
c112.667 0 208.334 22.333 287.001 67c96.667 54.667 145 134.334 145 239.001v24zM303 190.998l-0.000976562 -89c0 -29.333 15 -44 45 -44c31.333 0 47 14.667 47 44v89c0 29.333 -15.667 44 -47 44c-11.333 0 -21.666 -4.5 -30.999 -13.5s-14 -19.167 -14 -30.5z
M51.999 451.998c6 17.333 13 31.8301 21 43.4971s16 19.167 24 22.5l22 10l19 3l14 1c11.333 0.666992 27 -3.66602 47 -12.999c9.33301 0 18.333 -10 27 -30c7.33301 -17.333 11 -31.666 11 -42.999c0 -35.333 -11 -59.666 -33 -72.999
c-15.333 -9.33301 -31.333 -14 -48 -14c-27.333 0 -50.333 9.33301 -69 28l-10 14l-6 15l2 7zM104.999 434.995l1 -10c0 -7.33301 7 -16 21 -26c12 -6 24.667 -9 38 -9c6.66699 0 11 0.666992 13 2c22 10 33 28.667 33 56c0 8 -4.5 16.833 -13.5 26.5
s-20.167 14.5 -33.5 14.5c-12 0 -21.333 -1.66699 -28 -5c-20.667 -4.66699 -31 -21 -31 -49z" />
    <glyph glyph-name="Ecircumflex" unicode="&#xca;" horiz-adv-x="865" 
d="M126 390l12.002 -6c-2.66699 -1.33301 -5.33398 -3.33301 -8.00098 -6c3.33301 -0.666992 5 -3 5 -7c0 -2 -2.66699 -8.66699 -8 -20l-12 -25l-10 -29l-7 -28l-2 -31v-103c0 -84.667 30 -159 90 -223s132 -96 216 -96h69c60.667 0 117.5 23.333 170.5 70
s79.5 99.667 79.5 159v68c0 83.333 -26.667 125 -80 125h-57v-92c0 -97.333 -68.333 -146 -205 -146c-46 0 -86.333 10.667 -121 32c-40.667 25.333 -61 59.666 -61 102.999v92c0 13.333 6.16699 28 18.5 44s25.166 24 38.499 24h47v182h420v-57h-137v-125h68
c46 0 82.333 -15 109 -45s40 -68.333 40 -115v-90c0 -78.667 -32.333 -147 -97 -205c-60 -53.333 -126.667 -80 -200 -80h-113c-104 0 -192.5 36.333 -265.5 109s-109.5 161.334 -109.5 266.001v92c0 42.667 7.66699 78.667 23 108c19.333 36.667 48.333 55 87 55z
M504.002 295v125h-125v-125h125zM289.002 215v-90c0 -11.333 11 -27 33 -47c22 -14 45 -21 69 -21s48 6.66699 72 20c27.333 16 41 35.333 41 58v103h-191c-16 0 -24 -7.66699 -24 -23zM52.002 452c6 17.333 13 31.8301 21 43.4971s16 19.167 24 22.5l22 10l19 3l14 1
c11.333 0.666992 27 -3.66602 47 -12.999c9.33301 0 18.333 -10 27 -30c7.33301 -17.333 11 -31.666 11 -42.999c0 -35.333 -11 -59.666 -33 -72.999c-15.333 -9.33301 -31.333 -14 -48 -14c-27.333 0 -50.333 9.33301 -69 28l-10 14l-6 15l2 7zM105.002 434.997l1 -10
c0 -7.33301 7 -16 21 -26c12 -6 24.667 -9 38 -9c6.66699 0 11 0.666992 13 2c22 10 33 28.667 33 56c0 8 -4.5 16.833 -13.5 26.5s-20.167 14.5 -33.5 14.5c-12 0 -21.333 -1.66699 -28 -5c-20.667 -4.66699 -31 -21 -31 -49z" />
    <glyph glyph-name="Edieresis" unicode="&#xcb;" horiz-adv-x="865" 
d="M596 -137v-23h-80v160h-272v477h78v-420h194v328c0 20 12 41.667 36 65c24 18 57.333 27 100 27c99.333 0 149 -53.667 149 -161v-226c0 -25.333 -7.16699 -46.666 -21.5 -63.999s-33.833 -26 -58.5 -26h-125v-92c23.333 23.333 54 35 92 35c59.333 0 89 -26.667 89 -80
c0 -54.667 -27 -98.334 -81 -131.001c-46 -27.333 -98.333 -41 -157 -41h-113c-109.333 0 -203 29 -281 87c-86 64 -129 149 -129 255c0 95.333 13.667 188 41 278c3.33301 12 14.333 30.333 33 55l54 -36c-21.333 -38 -35 -76.667 -41 -116c-4.66699 -26 -7 -67 -7 -123
v-58c0 -76.667 31.333 -141.667 94 -195c69.333 -58.667 152 -88 248 -88c172.667 0 259 34 259 102c0 12 -4.66699 21.667 -14 29s-20.333 11 -33 11c-22.667 0 -40.667 -9.66699 -54 -29zM596 363l-0.000976562 -306h92c22 0 33 18.667 33 56v203
c0 69.333 -23 104 -69 104c-13.333 0 -27.666 -7 -42.999 -21c-8.66699 -10.667 -13 -22.667 -13 -36zM31.999 432c6 17.333 13 31.8301 21 43.4971s16 19.167 24 22.5l22 10l19 3l14 1c11.333 0.666992 27 -3.66602 47 -12.999c9.33301 0 18.333 -10 27 -30
c7.33301 -17.333 11 -31.666 11 -42.999c0 -35.333 -11 -59.666 -33 -72.999c-15.333 -9.33301 -31.333 -14 -48 -14c-27.333 0 -50.333 9.33301 -69 28l-10 14l-6 15l2 7zM84.999 414.997l1 -10c0 -7.33301 7 -16 21 -26c12 -6 24.667 -9 38 -9c6.66699 0 11 0.666992 13 2
c22 10 33 28.667 33 56c0 8 -4.5 16.833 -13.5 26.5s-20.167 14.5 -33.5 14.5c-12 0 -21.333 -1.66699 -28 -5c-20.667 -4.66699 -31 -21 -31 -49z" />
    <glyph glyph-name="Igrave" unicode="&#xcc;" horiz-adv-x="922" 
d="M664 182l0.00195312 -182.004h-78v420h-182c-32 0 -60.833 -12.833 -86.5 -38.5s-38.5 -54.5 -38.5 -86.5c18.667 16.667 38.667 25 60 25c28.667 0 54.167 -10.5 76.5 -31.5s33.5 -45.5 33.5 -73.5v-102c0 -33.333 -13 -60.666 -39 -81.999
c-23.333 -19.333 -52.333 -29 -87 -29c-35.333 0 -64.833 9.83301 -88.5 29.5s-35.5 46.834 -35.5 81.501v147c0 57.333 19.833 107.833 59.5 151.5s88.167 65.5 145.5 65.5h397v-57h-137v-160c22 10 42.333 15 61 15c40 0 72.667 -19.667 98 -59c22.667 -34 34 -72 34 -114
c0 -121.333 -40.667 -212 -122 -272c-72 -53.333 -171 -80 -297 -80c-117.333 0 -217.333 41.667 -300 125c-35.333 36 -65 75.667 -89 119c-2 4.66699 -5.33301 13.667 -10 27l-13 36l-6 32l-2 36l-1 39c-0.666992 26 -1 44.667 -1 56c0 24 4.66699 46 14 66
c4.66699 10 16.667 30 36 60l48 -24c-16.667 -30.667 -27.334 -52 -32.001 -64c-6.66699 -19.333 -10 -42.666 -10 -69.999v-31c0 -93.333 38.667 -173.666 116 -240.999c66 -57.333 149.333 -93.666 250 -108.999c51.333 0 105 9.33301 161 28
c79.333 26.667 133.666 72.667 162.999 138c12.667 29.333 19 67.666 19 114.999v46l-2 12c0 16 -7 30 -21 42s-29 18 -45 18c-14.667 0 -31 -8 -49 -24zM324.002 237.996c-9.33301 0 -19.167 -5.5 -29.5 -16.5s-15.5 -21.167 -15.5 -30.5v-89c0 -29.333 15 -44 45 -44
s45 14.667 45 44v89c0 12 -4.5 22.833 -13.5 32.5s-19.5 14.5 -31.5 14.5zM22.001 411.996c6 17.333 13 31.8301 21 43.4971s16 19.167 24 22.5l22 10l19 3l14 1c11.333 0.666992 27 -3.66602 47 -12.999c9.33301 0 18.333 -10 27 -30
c7.33301 -17.333 11 -31.666 11 -42.999c0 -35.333 -11 -59.666 -33 -72.999c-15.333 -9.33301 -31.333 -14 -48 -14c-27.333 0 -50.333 9.33301 -69 28l-10 14l-6 15l2 7zM75.001 394.993l1 -10c0 -7.33301 7 -16 21 -26c12 -6 24.667 -9 38 -9c6.66699 0 11 0.666992 13 2
c22 10 33 28.667 33 56c0 8 -4.5 16.833 -13.5 26.5s-20.167 14.5 -33.5 14.5c-12 0 -21.333 -1.66699 -28 -5c-20.667 -4.66699 -31 -21 -31 -49z" />
    <glyph glyph-name="Iacute" unicode="&#xcd;" horiz-adv-x="854" 
d="M539 10c-37.333 -65.333 -101.667 -133.001 -193 -203.001c25.333 -8 52 -12 80 -12h45c24.667 0 49 7 73 21c26.667 16 40 35.667 40 59v45l-3 25c-1.33301 6.66699 -5 15.334 -11 26.001c-10 18.667 -20.333 31.667 -31 39zM470.999 32.999
c-44 8 -70.668 11.999 -80.001 11.999h-78c-35.333 0 -85 -15 -149 -45c35.333 -69.333 77 -122.666 125 -159.999c30.667 18 63.334 45.667 98.001 83l31 33l17 23c14.667 19.333 26.667 37.333 36 54zM265.998 259.998c0 -22.667 15.667 -34 47 -34
c29.333 0 44 11.333 44 34v115c0 27.333 -15 41 -45 41c-30.667 0 -46 -13.667 -46 -41v-115zM106.998 -47.002c-29.333 -32.667 -44 -58.667 -44 -78c0 -23.333 4 -44 12 -62c5.33301 -12 12.333 -18 21 -18h45c4.66699 0 17.5 5.16699 38.5 15.5
s34.833 16.166 41.5 17.499c-52.667 46.667 -90.667 88.334 -114 125.001zM631.998 401.998c6 17.333 13 31.8301 21 43.4971s16 19.167 24 22.5l22 10l19 3l14 1c11.333 0.666992 27 -3.66602 47 -12.999c9.33301 0 18.333 -10 27 -30
c7.33301 -17.333 11 -31.666 11 -42.999c0 -35.333 -11 -59.666 -33 -72.999c-15.333 -9.33301 -31.333 -14 -48 -14c-27.333 0 -50.333 9.33301 -69 28l-10 14l-6 15l2 7zM684.998 384.995l1 -10c0 -7.33301 7 -16 21 -26c12 -6 24.667 -9 38 -9
c6.66699 0 11 0.666992 13 2c22 10 33 28.667 33 56c0 8 -4.5 16.833 -13.5 26.5s-20.167 14.5 -33.5 14.5c-12 0 -21.333 -1.66699 -28 -5c-20.667 -4.66699 -31 -21 -31 -49zM731.998 449.995c-23.333 0 -44.333 31 -63 93c-10.667 34.667 -23.667 58.667 -39 72
c-52.667 44.667 -120.667 67 -204 67h-69c-70.667 0 -132.667 -32.333 -186 -97c-50 -60.667 -75 -127.334 -75 -200.001v-135c0 -72.667 15 -141 45 -205c18.667 14 45.667 26.333 81 37l51 15c11.333 3.33301 24.666 5 39.999 5h101c25.333 0 52 -8 80 -24l7 41l3 51v45
c0 59.333 -9.66699 105.333 -29 138c-18 38 -42.333 60.333 -73 67c24 -24 36 -50.667 36 -80v-80c0 -26 -14 -49.667 -42 -71c-27.333 -12.667 -55 -19 -83 -19c-31.333 0 -60.666 8 -87.999 24c-24.667 18.667 -37 44.334 -37 77.001v81c0 35.333 13.333 65 40 89
s58 36 94 36h57c63.333 0 114.333 -26.667 153 -80c34.667 -47.333 52 -104 52 -170v-57c0 -11.333 -7 -46 -21 -104c67.333 -36 101 -77.667 101 -125v-66c0 -39.333 -17.333 -72.333 -52 -99c-32 -25.333 -68 -38 -108 -38h-90c-23.333 0 -65 15 -125 45
c-58 -30 -99.667 -45 -125 -45h-92c-25.333 0 -46.666 9 -63.999 27s-26 39 -26 63v47c0 42 30 87 90 135c-37.333 80.667 -56 160.667 -56 240v146c0 85.333 31.333 163 94 233c65.333 72.667 140 109 224 109h125c83.333 0 158.666 -26.667 225.999 -80
c71.333 -56.667 107 -126 107 -208h-60z" />
    <glyph glyph-name="ydieresis" unicode="&#xff;" horiz-adv-x="848" 
d="M293 596v-269h-207l-51 -46v-231l33 -40h306v586h-81zM119 246v-158h174v158h-174zM680 327h-219l-48 -46v-234l39 -37h228v81h-180v155h180v81zM800 330h-45l-39 -58v-227l39 -38h45v323zM803 453h-63l-21 -21v-46l21 -16h63v83zM300 247v-15h14v15h-14zM330 247v-15h14
v15h-14zM300 218v-15h14v15h-14zM315 232v-14h14v14h-14zM360 247v-15h14v15h-14zM345 232v-14h14v14h-14zM330 217v-15h14v15h-14zM360 217v-15h14v15h-14z" />
    <glyph glyph-name=".null" horiz-adv-x="0" 
 />
    <glyph glyph-name="nonmarkingreturn" horiz-adv-x="500" 
 />
    <glyph glyph-name="Kokki" horiz-adv-x="150" 
d="M-271 496c-22 29.333 -31.666 61.332 -28.999 95.999l2 27l2 15c6 47.333 28.167 81 66.5 101s73.166 29 104.499 27l31 -2c52.667 -3.33301 92.667 -23.333 120 -60c21.333 -28.667 34 -54.667 38 -78v-612h-69v583c0 34.667 -18.667 64 -56 88l-29 11l-31 4h-20l-22 -6
c-15.333 -2 -30 -14 -44 -36s-21 -41 -21 -57c0 -27.333 13.667 -53.666 41 -78.999l39 -1v-67h-60c-22 4 -43 19.333 -63 46z" />
    <glyph glyph-name="glyph105" horiz-adv-x="500" 
 />
    <glyph glyph-name="glyph106" horiz-adv-x="500" 
 />
  </font>
</defs>
</svg>
